<?xml version="1.0" encoding="utf-8"?>
<!-- Generator: Adobe Illustrator 16.0.4, SVG Export Plug-In . SVG Version: 6.00 Build 0)  -->
<!DOCTYPE svg PUBLIC "-//W3C//DTD SVG 1.1//EN" "http://www.w3.org/Graphics/SVG/1.1/DTD/svg11.dtd">
<svg version="1.1" id="Layer_1" xmlns="http://www.w3.org/2000/svg" xmlns:xlink="http://www.w3.org/1999/xlink" x="0px" y="0px"
	 width="500px" height="180px" viewBox="0 0 500 180" enable-background="new 0 0 500 180" xml:space="preserve">
<g>
	<linearGradient id="SVGID_1_" gradientUnits="userSpaceOnUse" x1="163.5186" y1="66" x2="163.5186" y2="114.0005">
		<stop  offset="0" style="stop-color:#EBA843"/>
		<stop  offset="1" style="stop-color:#E58D08"/>
	</linearGradient>
	<path fill="url(#SVGID_1_)" stroke="#E2971F" stroke-miterlimit="10" d="M243.519,106.177c0,4.32-3.582,7.823-8,7.823h-144
		c-4.418,0-8-3.503-8-7.823V73.825c0-4.32,3.582-7.825,8-7.825h144c4.418,0,8,3.505,8,7.825V106.177z"/>
	<g>
		<path fill="#FFFFFF" d="M220.421,92.531c-3.066-1.286-6.594-2.036-10.352-2.042c-6.219-0.018-11.812,1.977-15.711,5.167
			c0,0-0.055,0.445,0.332,0.354l0.117-0.053c4.285-2.104,9.557-3.346,15.262-3.33c2.918,0.005,5.719,0.346,8.332,0.947
			C218.401,93.575,221.13,94.591,220.421,92.531z"/>
		<path fill="#FFFFFF" d="M229.606,101.406c-3.211-3.192-8.07-5.692-13.68-6.683c-3.396-0.596-6.646-0.564-9.537-0.018
			c-0.838,1.536,1.723,1.164,1.723,1.164c2.418-0.068,4.977,0.111,7.609,0.572c5.145,0.909,9.789,2.756,13.457,5.131l0.098,0.064
			C229.614,101.773,229.606,101.406,229.606,101.406z"/>
		<path fill="#FFFFFF" d="M212.722,80.263c-0.473-1.263-2.076-0.911-2.195,0.253c-0.098,0.942,0.742,2.028,1.393,2.945
			c0.479-0.331,0.984-0.62,1.51-0.87C213.308,82.055,213.058,81.177,212.722,80.263z"/>
		<path fill="#FFFFFF" d="M218.362,81.55c0.137-0.959,0.242-1.987-0.188-2.654c-0.641-0.992-2.242-0.622-2.086,0.711
			c0.094,0.781,0.23,1.516,0.352,2.05c0.434-0.065,0.875-0.109,1.322-0.122C217.968,81.528,218.163,81.544,218.362,81.55z"/>
		<path fill="#FFFFFF" d="M224.03,79.773c-0.189-1.247-1.812-1.492-2.211-0.083c-0.25,0.896-0.43,1.76-0.533,2.359
			c0.594,0.188,1.164,0.422,1.709,0.713C223.552,81.786,224.169,80.685,224.03,79.773z"/>
		<path fill="#FFFFFF" d="M226.698,86.023c0.926-0.539,1.977-1.156,2.266-1.974c0.391-1.104-0.92-2.065-1.889-1.102
			c-0.635,0.63-1.182,1.258-1.537,1.7C225.96,85.07,226.343,85.536,226.698,86.023z"/>
		<path fill="#FFFFFF" d="M230.741,87.685c-1.143,0.433-2.168,0.936-2.57,1.167c0.18,0.497,0.334,1.011,0.443,1.542
			c1.166-0.144,2.666-0.225,3.373-0.948C232.817,88.599,232.038,87.2,230.741,87.685z"/>
		<path fill="#FFFFFF" d="M208.749,87.234c2.006-2.453,4.949-4.05,8.258-4.138c6.092-0.164,11.053,4.838,11.092,11.182
			c0.006,1.203-0.166,2.359-0.484,3.453c0,0-0.318,0.253-0.627-0.125c0.059-0.469,0.102-0.942,0.102-1.432
			c-0.039-5.748-4.539-10.292-10.062-10.141c-2.109,0.055-4.055,0.794-5.656,2C211.37,88.034,209.222,89.138,208.749,87.234z"/>
	</g>
	<g>
		<path fill="#FFFFFF" d="M98.708,93.901l0.527-0.047c0.273-0.031,0.465-0.128,0.465-0.448v-7.435l-0.912-0.05v-1.359h4.365
			c2.352,0,3.838,0.769,3.838,2.943c0,1.599-1.039,2.463-1.918,2.814c0.432,0.159,0.67,0.433,0.912,0.975l1.15,2.513l0.912,0.031
			v1.359h-3.951v-1.297l0.463-0.047c0.369-0.047,0.449-0.192,0.305-0.513l-0.752-1.6c-0.225-0.494-0.447-0.734-1.006-0.734h-1.457
			v2.781l1.041,0.05v1.359h-3.982V93.901z M103.042,89.49c1.359,0,1.967-0.625,1.967-1.761c0-1.44-0.832-1.614-2.191-1.614h-1.168
			v3.375H103.042z"/>
		<path fill="#FFFFFF" d="M115.358,89.136c0,2.464-2.67,2.88-4.557,2.896c0.064,1.039,0.607,1.886,1.967,1.886
			c0.943,0,1.631-0.43,2.016-0.703l0.607,1.297c-0.256,0.224-1.311,0.896-2.814,0.896c-2.719,0-3.773-1.664-3.773-4.047
			c0-2.367,1.326-4.445,3.949-4.445C114.319,86.914,115.358,87.714,115.358,89.136z M112.64,88.273
			c-1.277,0-1.854,1.232-1.902,2.414c1.184-0.016,2.863-0.286,2.863-1.518C113.601,88.578,113.218,88.273,112.64,88.273z"/>
		<path fill="#FFFFFF" d="M119.745,88.225c-0.688,0-1.199,0.32-1.199,0.961c0,0.734,0.768,0.958,1.52,1.166
			c1.246,0.352,2.621,0.753,2.621,2.495c0,1.664-1.375,2.56-3.086,2.56c-1.008,0-2.27-0.161-2.941-0.497v-2.222l1.439-0.111v0.766
			c0,0.305,0.08,0.432,0.367,0.544c0.303,0.112,0.672,0.161,1.057,0.161c0.799,0,1.262-0.305,1.262-0.977
			c0-0.768-0.703-0.911-1.566-1.135c-1.184-0.305-2.479-0.703-2.479-2.479c0-1.661,1.408-2.542,3.086-2.542
			c1.088,0,2.031,0.336,2.654,0.641v1.917l-1.439,0.112v-0.672c0-0.303-0.08-0.43-0.367-0.542
			C120.37,88.258,120.128,88.225,119.745,88.225z"/>
		<path fill="#FFFFFF" d="M130.319,89.136c0,2.464-2.67,2.88-4.557,2.896c0.064,1.039,0.607,1.886,1.967,1.886
			c0.943,0,1.631-0.43,2.016-0.703l0.605,1.297c-0.254,0.224-1.311,0.896-2.812,0.896c-2.719,0-3.775-1.664-3.775-4.047
			c0-2.367,1.328-4.445,3.951-4.445C129.28,86.914,130.319,87.714,130.319,89.136z M127.601,88.273
			c-1.279,0-1.855,1.232-1.902,2.414c1.184-0.016,2.863-0.286,2.863-1.518C128.562,88.578,128.177,88.273,127.601,88.273z"/>
		<path fill="#FFFFFF" d="M132.435,88.977c0-0.352-0.096-0.463-0.4-0.479l-0.672-0.05v-1.294h2.703v1.2
			c0.367-0.8,1.215-1.44,2.27-1.44c0.529,0,1.008,0.097,1.535,0.352v2.383l-1.486,0.112v-0.737c0-0.189-0.031-0.333-0.16-0.398
			c-0.143-0.064-0.256-0.08-0.432-0.08c-0.863,0-1.455,0.688-1.455,1.614v3.711l1.393,0.065v1.263h-4.287v-1.216l0.529-0.047
			c0.303-0.034,0.463-0.128,0.463-0.529V88.977z"/>
		<path fill="#FFFFFF" d="M147.069,87.154v1.247l-0.496,0.031c-0.207,0.016-0.336,0.081-0.43,0.386l-2.062,6.38h-2.447l-2.24-6.364
			c-0.096-0.289-0.176-0.386-0.463-0.401l-0.463-0.031v-1.247h3.758v1.278l-0.977,0.05l1.648,5.26h0.031l1.598-5.26l-0.83-0.05
			v-1.278H147.069z"/>
		<path fill="#FFFFFF" d="M154.384,89.136c0,2.464-2.67,2.88-4.557,2.896c0.062,1.039,0.605,1.886,1.965,1.886
			c0.945,0,1.633-0.43,2.016-0.703l0.607,1.297c-0.256,0.224-1.311,0.896-2.814,0.896c-2.719,0-3.773-1.664-3.773-4.047
			c0-2.367,1.328-4.445,3.949-4.445C153.343,86.914,154.384,87.714,154.384,89.136z M151.665,88.273
			c-1.279,0-1.855,1.232-1.904,2.414c1.184-0.016,2.863-0.286,2.863-1.518C152.624,88.578,152.241,88.273,151.665,88.273z"/>
		<path fill="#FFFFFF" d="M158.69,93.901l0.576-0.047c0.271-0.016,0.416-0.128,0.416-0.448v-7.435l-0.912-0.05v-1.359h2.879
			l4.525,7.342h0.031v-5.933l-1.055-0.05v-1.359h3.902v1.297l-0.576,0.047c-0.24,0.016-0.385,0.159-0.385,0.495v8.797h-1.871
			l-4.621-7.453h-0.031v6.044l1.039,0.05v1.359h-3.918V93.901z"/>
		<path fill="#FFFFFF" d="M173.472,86.914c1.184,0,3.566,0.367,3.566,4.045c0,3.07-1.711,4.479-3.822,4.479
			c-2.141,0-3.549-1.375-3.549-4.271C169.667,87.842,171.825,86.914,173.472,86.914z M175.089,91.217
			c0-1.792-0.434-2.896-1.711-2.896c-1.266,0-1.777,1.089-1.777,2.623c0,1.486,0.209,3.086,1.742,3.086
			C174.591,94.029,175.089,92.878,175.089,91.217z"/>
		<path fill="#FFFFFF" d="M184.958,87.475l1.664,5.947h0.031l1.088-4.939l-0.816-0.05v-1.278h3.215v1.231l-0.527,0.031
			c-0.209,0.016-0.336,0.081-0.434,0.383l-1.518,6.398h-2.303l-1.312-4.766h-0.047l-1.359,4.766h-2.352l-1.613-6.38
			c-0.098-0.289-0.178-0.386-0.465-0.401l-0.463-0.031v-1.231h3.662v1.278l-0.896,0.05l1.104,4.908h0.031l1.758-5.916H184.958z"/>
	</g>
</g>
<g>
	<path fill="#EBA843" stroke="#E2971F" stroke-miterlimit="10" d="M416.477,106.178c0,4.32-3.582,7.822-8,7.822h-144
		c-4.418,0-8-3.502-8-7.822V73.826c0-4.32,3.582-7.826,8-7.826h144c4.418,0,8,3.506,8,7.826V106.178z"/>
	<g>
		<path fill="#FFFFFF" d="M393.379,92.531c-3.066-1.285-6.594-2.035-10.352-2.041c-6.219-0.018-11.812,1.977-15.711,5.166
			c0,0-0.055,0.445,0.332,0.355l0.117-0.053c4.285-2.104,9.557-3.346,15.262-3.33c2.918,0.004,5.719,0.346,8.332,0.947
			C391.359,93.576,394.088,94.592,393.379,92.531z"/>
		<path fill="#FFFFFF" d="M402.564,101.406c-3.211-3.191-8.07-5.691-13.68-6.682c-3.396-0.596-6.646-0.564-9.537-0.018
			c-0.838,1.535,1.723,1.164,1.723,1.164c2.418-0.068,4.977,0.111,7.609,0.572c5.145,0.908,9.789,2.756,13.457,5.131l0.098,0.064
			C402.572,101.773,402.564,101.406,402.564,101.406z"/>
		<path fill="#FFFFFF" d="M385.68,80.264c-0.473-1.264-2.076-0.912-2.195,0.252c-0.098,0.943,0.742,2.029,1.393,2.945
			c0.479-0.33,0.984-0.619,1.51-0.869C386.266,82.055,386.016,81.178,385.68,80.264z"/>
		<path fill="#FFFFFF" d="M391.32,81.551c0.137-0.959,0.242-1.988-0.188-2.654c-0.641-0.992-2.242-0.623-2.086,0.711
			c0.094,0.781,0.23,1.516,0.352,2.049c0.434-0.064,0.875-0.109,1.322-0.121C390.926,81.529,391.121,81.545,391.32,81.551z"/>
		<path fill="#FFFFFF" d="M396.988,79.773c-0.189-1.246-1.812-1.492-2.211-0.082c-0.25,0.895-0.43,1.76-0.533,2.359
			c0.594,0.188,1.164,0.422,1.709,0.713C396.51,81.787,397.127,80.686,396.988,79.773z"/>
		<path fill="#FFFFFF" d="M399.656,86.023c0.926-0.539,1.977-1.156,2.266-1.973c0.391-1.105-0.92-2.066-1.889-1.102
			c-0.635,0.629-1.182,1.258-1.537,1.699C398.918,85.07,399.301,85.537,399.656,86.023z"/>
		<path fill="#FFFFFF" d="M403.699,87.686c-1.143,0.432-2.168,0.936-2.57,1.166c0.18,0.498,0.334,1.012,0.443,1.543
			c1.166-0.145,2.666-0.225,3.373-0.949C405.775,88.6,404.996,87.201,403.699,87.686z"/>
		<path fill="#FFFFFF" d="M381.707,87.234c2.006-2.453,4.949-4.049,8.258-4.137c6.092-0.164,11.053,4.838,11.092,11.182
			c0.006,1.203-0.166,2.359-0.484,3.453c0,0-0.318,0.252-0.627-0.125c0.059-0.469,0.102-0.943,0.102-1.432
			c-0.039-5.748-4.539-10.293-10.062-10.141c-2.109,0.055-4.055,0.793-5.656,2C384.328,88.035,382.18,89.139,381.707,87.234z"/>
	</g>
	<g>
		<path fill="#FFFFFF" d="M271.666,93.902l0.527-0.047c0.273-0.031,0.465-0.129,0.465-0.449v-7.434l-0.912-0.051v-1.359h4.365
			c2.352,0,3.838,0.77,3.838,2.943c0,1.6-1.039,2.463-1.918,2.814c0.432,0.16,0.67,0.434,0.912,0.975l1.15,2.514l0.912,0.031v1.359
			h-3.951v-1.297l0.463-0.047c0.369-0.047,0.449-0.193,0.305-0.514l-0.752-1.6c-0.225-0.494-0.447-0.734-1.006-0.734h-1.457v2.781
			l1.041,0.051v1.359h-3.982V93.902z M276,89.49c1.359,0,1.967-0.625,1.967-1.76c0-1.441-0.832-1.615-2.191-1.615h-1.168v3.375H276z
			"/>
		<path fill="#FFFFFF" d="M288.316,89.137c0,2.463-2.67,2.879-4.557,2.895c0.064,1.039,0.607,1.887,1.967,1.887
			c0.943,0,1.631-0.43,2.016-0.703l0.607,1.297c-0.256,0.223-1.311,0.895-2.814,0.895c-2.719,0-3.773-1.664-3.773-4.047
			c0-2.367,1.326-4.445,3.949-4.445C287.277,86.914,288.316,87.715,288.316,89.137z M285.598,88.273
			c-1.277,0-1.854,1.232-1.902,2.414c1.184-0.016,2.863-0.285,2.863-1.518C286.559,88.578,286.176,88.273,285.598,88.273z"/>
		<path fill="#FFFFFF" d="M292.703,88.225c-0.688,0-1.199,0.32-1.199,0.961c0,0.734,0.768,0.959,1.52,1.166
			c1.246,0.352,2.621,0.754,2.621,2.496c0,1.664-1.375,2.559-3.086,2.559c-1.008,0-2.27-0.16-2.941-0.496v-2.223l1.439-0.111v0.766
			c0,0.305,0.08,0.432,0.367,0.545c0.303,0.111,0.672,0.16,1.057,0.16c0.799,0,1.262-0.305,1.262-0.977
			c0-0.768-0.703-0.91-1.566-1.135c-1.184-0.305-2.479-0.703-2.479-2.479c0-1.662,1.408-2.543,3.086-2.543
			c1.088,0,2.031,0.336,2.654,0.641v1.918l-1.439,0.111v-0.672c0-0.303-0.08-0.43-0.367-0.541
			C293.328,88.258,293.086,88.225,292.703,88.225z"/>
		<path fill="#FFFFFF" d="M303.277,89.137c0,2.463-2.67,2.879-4.557,2.895c0.064,1.039,0.607,1.887,1.967,1.887
			c0.943,0,1.631-0.43,2.016-0.703l0.605,1.297c-0.254,0.223-1.311,0.895-2.812,0.895c-2.719,0-3.775-1.664-3.775-4.047
			c0-2.367,1.328-4.445,3.951-4.445C302.238,86.914,303.277,87.715,303.277,89.137z M300.559,88.273
			c-1.279,0-1.855,1.232-1.902,2.414c1.184-0.016,2.863-0.285,2.863-1.518C301.52,88.578,301.135,88.273,300.559,88.273z"/>
		<path fill="#FFFFFF" d="M305.393,88.977c0-0.352-0.096-0.463-0.4-0.479l-0.672-0.049v-1.295h2.703v1.201
			c0.367-0.801,1.215-1.441,2.27-1.441c0.529,0,1.008,0.098,1.535,0.352v2.383l-1.486,0.113v-0.738c0-0.189-0.031-0.332-0.16-0.398
			c-0.143-0.064-0.256-0.08-0.432-0.08c-0.863,0-1.455,0.688-1.455,1.615v3.711l1.393,0.064v1.264H304.4v-1.217l0.529-0.047
			c0.303-0.033,0.463-0.127,0.463-0.529V88.977z"/>
		<path fill="#FFFFFF" d="M320.027,87.154v1.248l-0.496,0.031c-0.207,0.016-0.336,0.08-0.43,0.385l-2.062,6.381h-2.447l-2.24-6.365
			c-0.096-0.289-0.176-0.385-0.463-0.4l-0.463-0.031v-1.248h3.758v1.279l-0.977,0.049l1.648,5.26h0.031l1.598-5.26l-0.83-0.049
			v-1.279H320.027z"/>
		<path fill="#FFFFFF" d="M327.342,89.137c0,2.463-2.67,2.879-4.557,2.895c0.062,1.039,0.605,1.887,1.965,1.887
			c0.945,0,1.633-0.43,2.016-0.703l0.607,1.297c-0.256,0.223-1.311,0.895-2.814,0.895c-2.719,0-3.773-1.664-3.773-4.047
			c0-2.367,1.328-4.445,3.949-4.445C326.301,86.914,327.342,87.715,327.342,89.137z M324.623,88.273
			c-1.279,0-1.855,1.232-1.904,2.414c1.184-0.016,2.863-0.285,2.863-1.518C325.582,88.578,325.199,88.273,324.623,88.273z"/>
		<path fill="#FFFFFF" d="M331.648,93.902l0.576-0.047c0.271-0.016,0.416-0.129,0.416-0.449v-7.434l-0.912-0.051v-1.359h2.879
			l4.525,7.342h0.031v-5.932l-1.055-0.051v-1.359h3.902v1.297l-0.576,0.047c-0.24,0.016-0.385,0.16-0.385,0.496v8.797h-1.871
			l-4.621-7.453h-0.031v6.043l1.039,0.051v1.359h-3.918V93.902z"/>
		<path fill="#FFFFFF" d="M346.43,86.914c1.184,0,3.566,0.367,3.566,4.045c0,3.07-1.711,4.479-3.822,4.479
			c-2.141,0-3.549-1.375-3.549-4.27C342.625,87.842,344.783,86.914,346.43,86.914z M348.047,91.217c0-1.791-0.434-2.896-1.711-2.896
			c-1.266,0-1.777,1.09-1.777,2.623c0,1.486,0.209,3.086,1.742,3.086C347.549,94.029,348.047,92.879,348.047,91.217z"/>
		<path fill="#FFFFFF" d="M357.916,87.475l1.664,5.947h0.031l1.088-4.939l-0.816-0.049v-1.279h3.215v1.232l-0.527,0.031
			c-0.209,0.016-0.336,0.08-0.434,0.383l-1.518,6.398h-2.303l-1.312-4.766h-0.047l-1.359,4.766h-2.352l-1.613-6.381
			c-0.098-0.289-0.178-0.385-0.465-0.4l-0.463-0.031v-1.232h3.662v1.279l-0.896,0.049l1.104,4.908h0.031l1.758-5.916H357.916z"/>
	</g>
</g>
</svg>
