<?xml version="1.0" encoding="utf-8"?>
<!-- Generator: Adobe Illustrator 16.0.4, SVG Export Plug-In . SVG Version: 6.00 Build 0)  -->
<!DOCTYPE svg PUBLIC "-//W3C//DTD SVG 1.1//EN" "http://www.w3.org/Graphics/SVG/1.1/DTD/svg11.dtd">
<svg version="1.1" id="Layer_1" xmlns="http://www.w3.org/2000/svg" xmlns:xlink="http://www.w3.org/1999/xlink" x="0px" y="0px"
	 width="500px" height="180px" viewBox="0 0 500 180" enable-background="new 0 0 500 180" xml:space="preserve">
<g>
	<linearGradient id="SVGID_1_" gradientUnits="userSpaceOnUse" x1="163.5176" y1="66" x2="163.5176" y2="114.0005">
		<stop  offset="0" style="stop-color:#F5F5F5"/>
		<stop  offset="1" style="stop-color:#D9D9D9"/>
	</linearGradient>
	<path fill="url(#SVGID_1_)" stroke="#CECECE" stroke-miterlimit="10" d="M243.518,106.177c0,4.32-3.582,7.823-8,7.823h-144
		c-4.418,0-8-3.503-8-7.823V73.825c0-4.32,3.582-7.825,8-7.825h144c4.418,0,8,3.505,8,7.825V106.177z"/>
	<g>
		<path fill="#1B4167" d="M220.42,92.531c-3.066-1.286-6.594-2.036-10.352-2.042c-6.219-0.018-11.812,1.977-15.711,5.167
			c0,0-0.055,0.445,0.332,0.354l0.117-0.053c4.285-2.104,9.557-3.346,15.262-3.33c2.918,0.005,5.719,0.346,8.332,0.947
			C218.4,93.575,221.129,94.591,220.42,92.531z"/>
		<path fill="#1B4167" d="M229.605,101.406c-3.211-3.192-8.07-5.692-13.68-6.683c-3.396-0.596-6.646-0.564-9.537-0.018
			c-0.838,1.536,1.723,1.164,1.723,1.164c2.418-0.068,4.977,0.111,7.609,0.572c5.145,0.909,9.789,2.756,13.457,5.131l0.098,0.064
			C229.613,101.773,229.605,101.406,229.605,101.406z"/>
		<path fill="#EB9C00" d="M212.721,80.263c-0.473-1.263-2.076-0.911-2.195,0.253c-0.098,0.942,0.742,2.028,1.393,2.945
			c0.479-0.331,0.984-0.62,1.51-0.87C213.307,82.055,213.057,81.177,212.721,80.263z"/>
		<path fill="#EB9C00" d="M218.361,81.55c0.137-0.959,0.242-1.987-0.188-2.654c-0.641-0.992-2.242-0.622-2.086,0.711
			c0.094,0.781,0.23,1.516,0.352,2.05c0.434-0.065,0.875-0.109,1.322-0.122C217.967,81.528,218.162,81.544,218.361,81.55z"/>
		<path fill="#EB9C00" d="M224.029,79.773c-0.189-1.247-1.812-1.492-2.211-0.083c-0.25,0.896-0.43,1.76-0.533,2.359
			c0.594,0.188,1.164,0.422,1.709,0.713C223.551,81.786,224.168,80.685,224.029,79.773z"/>
		<path fill="#EB9C00" d="M226.697,86.023c0.926-0.539,1.977-1.156,2.266-1.974c0.391-1.104-0.92-2.065-1.889-1.102
			c-0.635,0.63-1.182,1.258-1.537,1.7C225.959,85.07,226.342,85.536,226.697,86.023z"/>
		<path fill="#EB9C00" d="M230.74,87.685c-1.143,0.433-2.168,0.936-2.57,1.167c0.18,0.497,0.334,1.011,0.443,1.542
			c1.166-0.144,2.666-0.225,3.373-0.948C232.816,88.599,232.037,87.2,230.74,87.685z"/>
		<path fill="#EB9C00" d="M208.748,87.234c2.006-2.453,4.949-4.05,8.258-4.138c6.092-0.164,11.053,4.838,11.092,11.182
			c0.006,1.203-0.166,2.359-0.484,3.453c0,0-0.318,0.253-0.627-0.125c0.059-0.469,0.102-0.942,0.102-1.432
			c-0.039-5.748-4.539-10.292-10.062-10.141c-2.109,0.055-4.055,0.794-5.656,2C211.369,88.034,209.221,89.138,208.748,87.234z"/>
	</g>
	<g>
		<path fill="#545456" d="M98.707,93.901l0.527-0.047c0.273-0.031,0.465-0.128,0.465-0.448v-7.435l-0.912-0.05v-1.359h4.365
			c2.352,0,3.838,0.769,3.838,2.943c0,1.599-1.039,2.463-1.918,2.814c0.432,0.159,0.67,0.433,0.912,0.975l1.15,2.513l0.912,0.031
			v1.359h-3.951v-1.297l0.463-0.047c0.369-0.047,0.449-0.192,0.305-0.513l-0.752-1.6c-0.225-0.494-0.447-0.734-1.006-0.734h-1.457
			v2.781l1.041,0.05v1.359h-3.982V93.901z M103.041,89.49c1.359,0,1.967-0.625,1.967-1.761c0-1.44-0.832-1.614-2.191-1.614h-1.168
			v3.375H103.041z"/>
		<path fill="#545456" d="M115.357,89.136c0,2.464-2.67,2.88-4.557,2.896c0.064,1.039,0.607,1.886,1.967,1.886
			c0.943,0,1.631-0.43,2.016-0.703l0.607,1.297c-0.256,0.224-1.311,0.896-2.814,0.896c-2.719,0-3.773-1.664-3.773-4.047
			c0-2.367,1.326-4.445,3.949-4.445C114.318,86.914,115.357,87.714,115.357,89.136z M112.639,88.273
			c-1.277,0-1.854,1.232-1.902,2.414c1.184-0.016,2.863-0.286,2.863-1.518C113.6,88.578,113.217,88.273,112.639,88.273z"/>
		<path fill="#545456" d="M119.744,88.225c-0.688,0-1.199,0.32-1.199,0.961c0,0.734,0.768,0.958,1.52,1.166
			c1.246,0.352,2.621,0.753,2.621,2.495c0,1.664-1.375,2.56-3.086,2.56c-1.008,0-2.27-0.161-2.941-0.497v-2.222l1.439-0.111v0.766
			c0,0.305,0.08,0.432,0.367,0.544c0.303,0.112,0.672,0.161,1.057,0.161c0.799,0,1.262-0.305,1.262-0.977
			c0-0.768-0.703-0.911-1.566-1.135c-1.184-0.305-2.479-0.703-2.479-2.479c0-1.661,1.408-2.542,3.086-2.542
			c1.088,0,2.031,0.336,2.654,0.641v1.917l-1.439,0.112v-0.672c0-0.303-0.08-0.43-0.367-0.542
			C120.369,88.258,120.127,88.225,119.744,88.225z"/>
		<path fill="#545456" d="M130.318,89.136c0,2.464-2.67,2.88-4.557,2.896c0.064,1.039,0.607,1.886,1.967,1.886
			c0.943,0,1.631-0.43,2.016-0.703l0.605,1.297c-0.254,0.224-1.311,0.896-2.812,0.896c-2.719,0-3.775-1.664-3.775-4.047
			c0-2.367,1.328-4.445,3.951-4.445C129.279,86.914,130.318,87.714,130.318,89.136z M127.6,88.273c-1.279,0-1.855,1.232-1.902,2.414
			c1.184-0.016,2.863-0.286,2.863-1.518C128.561,88.578,128.176,88.273,127.6,88.273z"/>
		<path fill="#545456" d="M132.434,88.977c0-0.352-0.096-0.463-0.4-0.479l-0.672-0.05v-1.294h2.703v1.2
			c0.367-0.8,1.215-1.44,2.27-1.44c0.529,0,1.008,0.097,1.535,0.352v2.383l-1.486,0.112v-0.737c0-0.189-0.031-0.333-0.16-0.398
			c-0.143-0.064-0.256-0.08-0.432-0.08c-0.863,0-1.455,0.688-1.455,1.614v3.711l1.393,0.065v1.263h-4.287v-1.216l0.529-0.047
			c0.303-0.034,0.463-0.128,0.463-0.529V88.977z"/>
		<path fill="#545456" d="M147.068,87.154v1.247l-0.496,0.031c-0.207,0.016-0.336,0.081-0.43,0.386l-2.062,6.38h-2.447l-2.24-6.364
			c-0.096-0.289-0.176-0.386-0.463-0.401l-0.463-0.031v-1.247h3.758v1.278l-0.977,0.05l1.648,5.26h0.031l1.598-5.26l-0.83-0.05
			v-1.278H147.068z"/>
		<path fill="#545456" d="M154.383,89.136c0,2.464-2.67,2.88-4.557,2.896c0.062,1.039,0.605,1.886,1.965,1.886
			c0.945,0,1.633-0.43,2.016-0.703l0.607,1.297c-0.256,0.224-1.311,0.896-2.814,0.896c-2.719,0-3.773-1.664-3.773-4.047
			c0-2.367,1.328-4.445,3.949-4.445C153.342,86.914,154.383,87.714,154.383,89.136z M151.664,88.273
			c-1.279,0-1.855,1.232-1.904,2.414c1.184-0.016,2.863-0.286,2.863-1.518C152.623,88.578,152.24,88.273,151.664,88.273z"/>
		<path fill="#545456" d="M158.689,93.901l0.576-0.047c0.271-0.016,0.416-0.128,0.416-0.448v-7.435l-0.912-0.05v-1.359h2.879
			l4.525,7.342h0.031v-5.933l-1.055-0.05v-1.359h3.902v1.297l-0.576,0.047c-0.24,0.016-0.385,0.159-0.385,0.495v8.797h-1.871
			l-4.621-7.453h-0.031v6.044l1.039,0.05v1.359h-3.918V93.901z"/>
		<path fill="#545456" d="M173.471,86.914c1.184,0,3.566,0.367,3.566,4.045c0,3.07-1.711,4.479-3.822,4.479
			c-2.141,0-3.549-1.375-3.549-4.271C169.666,87.842,171.824,86.914,173.471,86.914z M175.088,91.217
			c0-1.792-0.434-2.896-1.711-2.896c-1.266,0-1.777,1.089-1.777,2.623c0,1.486,0.209,3.086,1.742,3.086
			C174.59,94.029,175.088,92.878,175.088,91.217z"/>
		<path fill="#545456" d="M184.957,87.475l1.664,5.947h0.031l1.088-4.939l-0.816-0.05v-1.278h3.215v1.231l-0.527,0.031
			c-0.209,0.016-0.336,0.081-0.434,0.383l-1.518,6.398h-2.303l-1.312-4.766h-0.047l-1.359,4.766h-2.352l-1.613-6.38
			c-0.098-0.289-0.178-0.386-0.465-0.401l-0.463-0.031v-1.231h3.662v1.278l-0.896,0.05l1.104,4.908h0.031l1.758-5.916H184.957z"/>
	</g>
</g>
<g>
	<path fill="#F5F5F5" stroke="#CECECE" stroke-miterlimit="10" d="M416.476,106.176c0,4.32-3.582,7.824-8,7.824h-144
		c-4.418,0-8-3.504-8-7.824V73.824c0-4.32,3.582-7.824,8-7.824h144c4.418,0,8,3.504,8,7.824V106.176z"/>
	<g>
		<path fill="#1B4167" d="M393.378,92.531c-3.066-1.287-6.594-2.037-10.352-2.043c-6.219-0.018-11.812,1.977-15.711,5.168
			c0,0-0.055,0.445,0.332,0.354l0.117-0.053c4.285-2.104,9.557-3.346,15.262-3.33c2.918,0.006,5.719,0.346,8.332,0.947
			C391.358,93.574,394.087,94.59,393.378,92.531z"/>
		<path fill="#1B4167" d="M402.563,101.406c-3.211-3.193-8.07-5.693-13.68-6.684c-3.396-0.596-6.646-0.564-9.537-0.018
			c-0.838,1.537,1.723,1.164,1.723,1.164c2.418-0.068,4.977,0.111,7.609,0.572c5.145,0.91,9.789,2.756,13.457,5.131l0.098,0.064
			C402.571,101.773,402.563,101.406,402.563,101.406z"/>
		<path fill="#EB9C00" d="M385.679,80.262c-0.473-1.262-2.076-0.91-2.195,0.254c-0.098,0.941,0.742,2.027,1.393,2.945
			c0.479-0.332,0.984-0.621,1.51-0.871C386.265,82.055,386.015,81.176,385.679,80.262z"/>
		<path fill="#EB9C00" d="M391.319,81.549c0.137-0.959,0.242-1.986-0.188-2.654c-0.641-0.992-2.242-0.621-2.086,0.711
			c0.094,0.781,0.23,1.516,0.352,2.051c0.434-0.066,0.875-0.109,1.322-0.123C390.925,81.527,391.12,81.543,391.319,81.549z"/>
		<path fill="#EB9C00" d="M396.987,79.773c-0.189-1.248-1.812-1.492-2.211-0.084c-0.25,0.896-0.43,1.76-0.533,2.359
			c0.594,0.188,1.164,0.422,1.709,0.713C396.509,81.785,397.126,80.684,396.987,79.773z"/>
		<path fill="#EB9C00" d="M399.655,86.023c0.926-0.539,1.977-1.156,2.266-1.975c0.391-1.104-0.92-2.064-1.889-1.102
			c-0.635,0.631-1.182,1.258-1.537,1.701C398.917,85.07,399.3,85.535,399.655,86.023z"/>
		<path fill="#EB9C00" d="M403.698,87.684c-1.143,0.434-2.168,0.936-2.57,1.168c0.18,0.496,0.334,1.01,0.443,1.541
			c1.166-0.143,2.666-0.225,3.373-0.947C405.774,88.598,404.995,87.199,403.698,87.684z"/>
		<path fill="#EB9C00" d="M381.706,87.234c2.006-2.453,4.949-4.051,8.258-4.139c6.092-0.164,11.053,4.838,11.092,11.182
			c0.006,1.203-0.166,2.359-0.484,3.453c0,0-0.318,0.254-0.627-0.125c0.059-0.469,0.102-0.941,0.102-1.432
			c-0.039-5.748-4.539-10.291-10.062-10.141c-2.109,0.055-4.055,0.795-5.656,2C384.327,88.033,382.179,89.137,381.706,87.234z"/>
	</g>
	<g>
		<path fill="#545456" d="M271.665,93.9l0.527-0.047c0.273-0.031,0.465-0.127,0.465-0.447v-7.436l-0.912-0.049v-1.359h4.365
			c2.352,0,3.838,0.768,3.838,2.943c0,1.598-1.039,2.463-1.918,2.814c0.432,0.158,0.67,0.432,0.912,0.975l1.15,2.512l0.912,0.031
			v1.359h-3.951V93.9l0.463-0.047c0.369-0.047,0.449-0.191,0.305-0.512l-0.752-1.6c-0.225-0.494-0.447-0.734-1.006-0.734h-1.457
			v2.781l1.041,0.049v1.359h-3.982V93.9z M275.999,89.49c1.359,0,1.967-0.625,1.967-1.762c0-1.439-0.832-1.613-2.191-1.613h-1.168
			v3.375H275.999z"/>
		<path fill="#545456" d="M288.315,89.135c0,2.465-2.67,2.881-4.557,2.896c0.064,1.039,0.607,1.885,1.967,1.885
			c0.943,0,1.631-0.43,2.016-0.703l0.607,1.297c-0.256,0.225-1.311,0.896-2.814,0.896c-2.719,0-3.773-1.664-3.773-4.047
			c0-2.367,1.326-4.445,3.949-4.445C287.276,86.914,288.315,87.713,288.315,89.135z M285.597,88.273
			c-1.277,0-1.854,1.232-1.902,2.414c1.184-0.016,2.863-0.287,2.863-1.518C286.558,88.578,286.175,88.273,285.597,88.273z"/>
		<path fill="#545456" d="M292.702,88.225c-0.688,0-1.199,0.32-1.199,0.961c0,0.734,0.768,0.957,1.52,1.166
			c1.246,0.352,2.621,0.752,2.621,2.494c0,1.664-1.375,2.561-3.086,2.561c-1.008,0-2.27-0.162-2.941-0.498v-2.221l1.439-0.111v0.766
			c0,0.305,0.08,0.432,0.367,0.543c0.303,0.113,0.672,0.162,1.057,0.162c0.799,0,1.262-0.305,1.262-0.977
			c0-0.768-0.703-0.912-1.566-1.135c-1.184-0.305-2.479-0.703-2.479-2.48c0-1.66,1.408-2.541,3.086-2.541
			c1.088,0,2.031,0.336,2.654,0.641v1.916l-1.439,0.113v-0.672c0-0.303-0.08-0.43-0.367-0.543
			C293.327,88.258,293.085,88.225,292.702,88.225z"/>
		<path fill="#545456" d="M303.276,89.135c0,2.465-2.67,2.881-4.557,2.896c0.064,1.039,0.607,1.885,1.967,1.885
			c0.943,0,1.631-0.43,2.016-0.703l0.605,1.297c-0.254,0.225-1.311,0.896-2.812,0.896c-2.719,0-3.775-1.664-3.775-4.047
			c0-2.367,1.328-4.445,3.951-4.445C302.237,86.914,303.276,87.713,303.276,89.135z M300.558,88.273
			c-1.279,0-1.855,1.232-1.902,2.414c1.184-0.016,2.863-0.287,2.863-1.518C301.519,88.578,301.134,88.273,300.558,88.273z"/>
		<path fill="#545456" d="M305.392,88.977c0-0.352-0.096-0.463-0.4-0.479l-0.672-0.051v-1.293h2.703v1.199
			c0.367-0.799,1.215-1.439,2.27-1.439c0.529,0,1.008,0.096,1.535,0.352v2.383l-1.486,0.111v-0.736c0-0.189-0.031-0.334-0.16-0.398
			c-0.143-0.064-0.256-0.08-0.432-0.08c-0.863,0-1.455,0.688-1.455,1.613v3.711l1.393,0.066v1.262h-4.287v-1.215l0.529-0.047
			c0.303-0.035,0.463-0.129,0.463-0.529V88.977z"/>
		<path fill="#545456" d="M320.026,87.154V88.4l-0.496,0.031c-0.207,0.016-0.336,0.082-0.43,0.387l-2.062,6.379h-2.447l-2.24-6.363
			c-0.096-0.289-0.176-0.387-0.463-0.402l-0.463-0.031v-1.246h3.758v1.277l-0.977,0.051l1.648,5.26h0.031l1.598-5.26l-0.83-0.051
			v-1.277H320.026z"/>
		<path fill="#545456" d="M327.341,89.135c0,2.465-2.67,2.881-4.557,2.896c0.062,1.039,0.605,1.885,1.965,1.885
			c0.945,0,1.633-0.43,2.016-0.703l0.607,1.297c-0.256,0.225-1.311,0.896-2.814,0.896c-2.719,0-3.773-1.664-3.773-4.047
			c0-2.367,1.328-4.445,3.949-4.445C326.3,86.914,327.341,87.713,327.341,89.135z M324.622,88.273c-1.279,0-1.855,1.232-1.904,2.414
			c1.184-0.016,2.863-0.287,2.863-1.518C325.581,88.578,325.198,88.273,324.622,88.273z"/>
		<path fill="#545456" d="M331.647,93.9l0.576-0.047c0.271-0.016,0.416-0.127,0.416-0.447v-7.436l-0.912-0.049v-1.359h2.879
			l4.525,7.342h0.031v-5.934l-1.055-0.049v-1.359h3.902v1.297l-0.576,0.047c-0.24,0.016-0.385,0.158-0.385,0.494v8.797h-1.871
			l-4.621-7.453h-0.031v6.045l1.039,0.049v1.359h-3.918V93.9z"/>
		<path fill="#545456" d="M346.429,86.914c1.184,0,3.566,0.367,3.566,4.045c0,3.07-1.711,4.479-3.822,4.479
			c-2.141,0-3.549-1.375-3.549-4.271C342.624,87.842,344.782,86.914,346.429,86.914z M348.046,91.217
			c0-1.793-0.434-2.896-1.711-2.896c-1.266,0-1.777,1.088-1.777,2.623c0,1.486,0.209,3.086,1.742,3.086
			C347.548,94.029,348.046,92.877,348.046,91.217z"/>
		<path fill="#545456" d="M357.915,87.475l1.664,5.947h0.031l1.088-4.939l-0.816-0.051v-1.277h3.215v1.23l-0.527,0.031
			c-0.209,0.016-0.336,0.082-0.434,0.383l-1.518,6.398h-2.303l-1.312-4.766h-0.047l-1.359,4.766h-2.352l-1.613-6.379
			c-0.098-0.289-0.178-0.387-0.465-0.402l-0.463-0.031v-1.23h3.662v1.277l-0.896,0.051l1.104,4.908h0.031l1.758-5.916H357.915z"/>
	</g>
</g>
</svg>
