<?xml version="1.0" encoding="utf-8"?>
<!-- Generator: Adobe Illustrator 16.0.4, SVG Export Plug-In . SVG Version: 6.00 Build 0)  -->
<!DOCTYPE svg PUBLIC "-//W3C//DTD SVG 1.1//EN" "http://www.w3.org/Graphics/SVG/1.1/DTD/svg11.dtd">
<svg version="1.1" id="Layer_1" xmlns="http://www.w3.org/2000/svg" xmlns:xlink="http://www.w3.org/1999/xlink" x="0px" y="0px"
	 width="500px" height="180px" viewBox="0 0 500 180" enable-background="new 0 0 500 180" xml:space="preserve">
<g>
	<g>
		<linearGradient id="SVGID_1_" gradientUnits="userSpaceOnUse" x1="163.521" y1="66" x2="163.521" y2="114.0005">
			<stop  offset="0" style="stop-color:#20508D"/>
			<stop  offset="1" style="stop-color:#1B4167"/>
		</linearGradient>
		<path fill="url(#SVGID_1_)" stroke="#1A4060" stroke-miterlimit="10" d="M243.525,106.175c0,4.32-3.585,7.825-8.003,7.825H91.519
			c-4.416,0-8.002-3.505-8.002-7.825V73.826c0-4.319,3.586-7.826,8.002-7.826h144.002c4.418,0,8.003,3.507,8.003,7.826V106.175z"/>
		<g>
			<path fill="#FFFFFF" d="M220.426,92.531c-3.062-1.281-6.598-2.031-10.354-2.047c-6.223-0.014-11.813,1.985-15.709,5.176
				c0,0-0.055,0.439,0.33,0.349l0.123-0.052c4.281-2.104,9.549-3.343,15.256-3.33c2.914,0.004,5.719,0.342,8.334,0.945
				C218.406,93.572,221.133,94.592,220.426,92.531z"/>
			<path fill="#FFFFFF" d="M229.611,101.403c-3.215-3.191-8.068-5.688-13.682-6.678c-3.391-0.598-6.648-0.564-9.532-0.023
				c-0.84,1.538,1.715,1.166,1.715,1.166c2.422-0.064,4.985,0.117,7.616,0.57c5.137,0.915,9.791,2.758,13.457,5.137l0.096,0.061
				C229.617,101.771,229.611,101.403,229.611,101.403z"/>
			<path fill="#FFFFFF" d="M212.729,80.26c-0.471-1.264-2.084-0.906-2.197,0.259c-0.096,0.941,0.744,2.026,1.396,2.938
				c0.475-0.331,0.984-0.617,1.508-0.865C213.309,82.05,213.062,81.179,212.729,80.26z"/>
			<path fill="#FFFFFF" d="M218.365,81.552c0.139-0.964,0.24-1.992-0.188-2.658c-0.645-0.99-2.244-0.618-2.08,0.711
				c0.094,0.784,0.221,1.521,0.346,2.052c0.432-0.062,0.879-0.106,1.322-0.126C217.977,81.525,218.168,81.548,218.365,81.552z"/>
			<path fill="#FFFFFF" d="M224.035,79.775c-0.189-1.251-1.816-1.494-2.209-0.086c-0.258,0.895-0.428,1.765-0.541,2.356
				c0.598,0.188,1.168,0.422,1.715,0.721C223.559,81.788,224.174,80.683,224.035,79.775z"/>
			<path fill="#FFFFFF" d="M226.703,86.021c0.93-0.533,1.975-1.158,2.262-1.972c0.398-1.099-0.912-2.064-1.885-1.097
				c-0.641,0.626-1.18,1.25-1.539,1.698C225.963,85.072,226.344,85.538,226.703,86.021z"/>
			<path fill="#FFFFFF" d="M230.744,87.688c-1.139,0.431-2.166,0.937-2.572,1.168c0.182,0.491,0.334,1.005,0.449,1.533
				c1.168-0.144,2.668-0.217,3.373-0.946C232.816,88.598,232.045,87.198,230.744,87.688z"/>
			<path fill="#FFFFFF" d="M208.753,87.234c2.008-2.45,4.954-4.046,8.256-4.136c6.092-0.168,11.055,4.837,11.096,11.178
				c0.004,1.206-0.172,2.366-0.49,3.456c0,0-0.311,0.249-0.625-0.129c0.057-0.469,0.1-0.941,0.1-1.426
				c-0.041-5.753-4.541-10.297-10.055-10.147c-2.109,0.063-4.061,0.794-5.66,2.003C211.375,88.033,209.225,89.142,208.753,87.234z"
				/>
		</g>
		<g>
			<path fill="#FFFFFF" d="M98.707,93.899l0.535-0.047c0.264-0.024,0.453-0.121,0.453-0.443v-7.438l-0.906-0.049v-1.359h4.363
				c2.35,0,3.84,0.765,3.84,2.946c0,1.598-1.037,2.457-1.92,2.813c0.43,0.155,0.668,0.43,0.918,0.977l1.145,2.507l0.918,0.034v1.36
				h-3.957v-1.301l0.463-0.047c0.371-0.047,0.453-0.191,0.311-0.513l-0.752-1.6c-0.225-0.488-0.453-0.728-1.012-0.728h-1.455v2.778
				l1.039,0.049v1.36h-3.982V93.899z M103.044,89.488c1.359,0,1.967-0.622,1.967-1.754c0-1.443-0.832-1.621-2.193-1.621h-1.168
				v3.375H103.044z"/>
			<path fill="#FFFFFF" d="M115.365,89.141c0,2.458-2.67,2.875-4.564,2.888c0.07,1.047,0.607,1.894,1.967,1.894
				c0.941,0,1.633-0.438,2.016-0.704l0.607,1.291c-0.25,0.226-1.311,0.894-2.814,0.894c-2.719,0-3.77-1.658-3.77-4.043
				c0-2.372,1.326-4.447,3.947-4.447C114.318,86.912,115.365,87.712,115.365,89.141z M112.646,88.271
				c-1.285,0-1.859,1.229-1.906,2.42c1.182-0.022,2.861-0.286,2.861-1.524C113.601,88.581,113.22,88.271,112.646,88.271z"/>
			<path fill="#FFFFFF" d="M119.746,88.223c-0.68,0-1.193,0.322-1.193,0.967c0,0.729,0.764,0.953,1.514,1.167
				c1.252,0.347,2.623,0.753,2.623,2.493c0,1.659-1.371,2.553-3.088,2.553c-1.002,0-2.266-0.156-2.943-0.49v-2.228l1.443-0.107
				v0.763c0,0.31,0.082,0.429,0.369,0.547c0.297,0.108,0.666,0.157,1.049,0.157c0.799,0,1.264-0.3,1.264-0.969
				c0-0.774-0.703-0.917-1.562-1.142c-1.182-0.3-2.48-0.704-2.48-2.481c0-1.657,1.408-2.54,3.09-2.54
				c1.084,0,2.027,0.335,2.658,0.645v1.917l-1.443,0.109v-0.668c0-0.309-0.084-0.429-0.369-0.547
				C120.367,88.26,120.126,88.223,119.746,88.223z"/>
			<path fill="#FFFFFF" d="M130.324,89.141c0,2.458-2.67,2.875-4.555,2.888c0.061,1.047,0.598,1.894,1.957,1.894
				c0.953,0,1.635-0.438,2.016-0.704l0.607,1.291c-0.25,0.226-1.311,0.894-2.814,0.894c-2.719,0-3.768-1.658-3.768-4.043
				c0-2.372,1.324-4.447,3.945-4.447C129.287,86.912,130.324,87.712,130.324,89.141z M127.605,88.271
				c-1.287,0-1.859,1.229-1.908,2.42c1.182-0.022,2.865-0.286,2.865-1.524C128.562,88.581,128.179,88.271,127.605,88.271z"/>
			<path fill="#FFFFFF" d="M132.439,88.975c0-0.347-0.096-0.463-0.406-0.476l-0.668-0.05v-1.298h2.705v1.205
				c0.371-0.8,1.217-1.444,2.266-1.444c0.527,0,1.014,0.097,1.539,0.357v2.374l-1.49,0.119v-0.741c0-0.189-0.033-0.332-0.156-0.394
				c-0.143-0.07-0.26-0.083-0.428-0.083c-0.871,0-1.465,0.691-1.465,1.61v3.72l1.395,0.062V95.2h-4.283v-1.217l0.527-0.047
				c0.297-0.037,0.465-0.131,0.465-0.527V88.975z"/>
			<path fill="#FFFFFF" d="M147.07,87.151v1.251l-0.488,0.035c-0.213,0.012-0.346,0.074-0.439,0.384L144.08,95.2h-2.445
				l-2.242-6.368c-0.094-0.287-0.168-0.383-0.465-0.395l-0.453-0.035v-1.251h3.756v1.286l-0.979,0.049l1.646,5.258h0.035
				l1.598-5.258l-0.834-0.049v-1.286H147.07z"/>
			<path fill="#FFFFFF" d="M154.384,89.141c0,2.458-2.67,2.875-4.555,2.888c0.061,1.047,0.607,1.894,1.967,1.894
				c0.943,0,1.633-0.438,2.016-0.704l0.607,1.291c-0.262,0.226-1.311,0.894-2.814,0.894c-2.719,0-3.779-1.658-3.779-4.043
				c0-2.372,1.336-4.447,3.959-4.447C153.347,86.912,154.384,87.712,154.384,89.141z M151.666,88.271
				c-1.275,0-1.848,1.229-1.896,2.42c1.18-0.022,2.861-0.286,2.861-1.524C152.63,88.581,152.238,88.271,151.666,88.271z"/>
			<path fill="#FFFFFF" d="M158.693,93.899l0.574-0.047c0.271-0.013,0.416-0.121,0.416-0.443v-7.438l-0.908-0.049v-1.359h2.875
				l4.531,7.346h0.025v-5.938l-1.051-0.049v-1.359h3.9v1.3l-0.574,0.047c-0.238,0.013-0.383,0.155-0.383,0.49V95.2h-1.871
				l-4.627-7.454h-0.033v6.045l1.047,0.049v1.36h-3.922V93.899z"/>
			<path fill="#FFFFFF" d="M173.47,86.912c1.193,0,3.566,0.369,3.566,4.042c0,3.075-1.705,4.483-3.816,4.483
				c-2.145,0-3.553-1.372-3.553-4.269C169.667,87.843,171.826,86.912,173.47,86.912z M175.093,91.217
				c0-1.789-0.43-2.898-1.717-2.898c-1.266,0-1.777,1.087-1.777,2.623c0,1.49,0.215,3.088,1.75,3.088
				C174.591,94.029,175.093,92.874,175.093,91.217z"/>
			<path fill="#FFFFFF" d="M184.957,87.473l1.67,5.949h0.035l1.084-4.936l-0.822-0.049v-1.286h3.221v1.238l-0.525,0.025
				c-0.215,0.022-0.334,0.084-0.441,0.381l-1.514,6.404h-2.301l-1.312-4.77h-0.047l-1.359,4.77h-2.352l-1.619-6.379
				c-0.096-0.288-0.168-0.384-0.465-0.406l-0.453-0.025v-1.238h3.658v1.286l-0.893,0.049l1.098,4.901h0.033l1.754-5.915H184.957z"/>
		</g>
	</g>
	<g>
		<path fill="#20508D" stroke="#1A4060" stroke-miterlimit="10" d="M416.482,106.174c0,4.32-3.586,7.826-8.004,7.826H264.477
			c-4.416,0-8.002-3.506-8.002-7.826V73.826c0-4.32,3.586-7.826,8.002-7.826h144.002c4.418,0,8.004,3.506,8.004,7.826V106.174z"/>
		<g>
			<path fill="#FFFFFF" d="M393.383,92.531c-3.062-1.281-6.598-2.031-10.354-2.047c-6.223-0.014-11.812,1.984-15.709,5.176
				c0,0-0.055,0.439,0.33,0.348l0.123-0.051c4.281-2.105,9.549-3.344,15.256-3.33c2.914,0.004,5.719,0.342,8.334,0.945
				C391.363,93.572,394.09,94.592,393.383,92.531z"/>
			<path fill="#FFFFFF" d="M402.568,101.402c-3.215-3.191-8.068-5.688-13.682-6.678c-3.391-0.598-6.648-0.564-9.531-0.023
				c-0.84,1.539,1.715,1.166,1.715,1.166c2.422-0.064,4.984,0.117,7.615,0.57c5.137,0.916,9.791,2.758,13.457,5.137l0.096,0.061
				C402.574,101.771,402.568,101.402,402.568,101.402z"/>
			<path fill="#FFFFFF" d="M385.686,80.26c-0.471-1.264-2.084-0.906-2.197,0.258c-0.096,0.941,0.744,2.027,1.396,2.938
				c0.475-0.33,0.984-0.617,1.508-0.865C386.266,82.049,386.02,81.178,385.686,80.26z"/>
			<path fill="#FFFFFF" d="M391.322,81.551c0.139-0.963,0.24-1.992-0.188-2.658c-0.645-0.99-2.244-0.617-2.08,0.711
				c0.094,0.785,0.221,1.521,0.346,2.053c0.432-0.062,0.879-0.107,1.322-0.127C390.934,81.525,391.125,81.547,391.322,81.551z"/>
			<path fill="#FFFFFF" d="M396.992,79.775c-0.189-1.252-1.816-1.494-2.209-0.086c-0.258,0.895-0.428,1.764-0.541,2.355
				c0.598,0.188,1.168,0.422,1.715,0.721C396.516,81.787,397.131,80.682,396.992,79.775z"/>
			<path fill="#FFFFFF" d="M399.66,86.02c0.93-0.533,1.975-1.158,2.262-1.971c0.398-1.1-0.912-2.064-1.885-1.098
				c-0.641,0.627-1.18,1.25-1.539,1.699C398.92,85.072,399.301,85.537,399.66,86.02z"/>
			<path fill="#FFFFFF" d="M403.701,87.688c-1.139,0.432-2.166,0.938-2.572,1.168c0.182,0.492,0.334,1.006,0.449,1.533
				c1.168-0.143,2.668-0.217,3.373-0.945C405.773,88.598,405.002,87.197,403.701,87.688z"/>
			<path fill="#FFFFFF" d="M381.711,87.234c2.008-2.451,4.953-4.047,8.256-4.137c6.092-0.168,11.055,4.838,11.096,11.178
				c0.004,1.207-0.172,2.367-0.49,3.457c0,0-0.311,0.248-0.625-0.129c0.057-0.469,0.1-0.941,0.1-1.426
				c-0.041-5.754-4.541-10.297-10.055-10.148c-2.109,0.064-4.061,0.795-5.66,2.004C384.332,88.033,382.182,89.141,381.711,87.234z"
				/>
		</g>
		<g>
			<path fill="#FFFFFF" d="M271.664,93.898l0.535-0.047c0.264-0.023,0.453-0.121,0.453-0.443v-7.438l-0.906-0.049v-1.359h4.363
				c2.35,0,3.84,0.764,3.84,2.945c0,1.598-1.037,2.457-1.92,2.814c0.43,0.154,0.668,0.43,0.918,0.977l1.145,2.506l0.918,0.035v1.359
				h-3.957v-1.301l0.463-0.047c0.371-0.047,0.453-0.191,0.311-0.512l-0.752-1.6c-0.225-0.488-0.453-0.729-1.012-0.729h-1.455v2.779
				l1.039,0.049v1.359h-3.982V93.898z M276.002,89.488c1.359,0,1.967-0.623,1.967-1.754c0-1.443-0.832-1.621-2.193-1.621h-1.168
				v3.375H276.002z"/>
			<path fill="#FFFFFF" d="M288.322,89.141c0,2.457-2.67,2.875-4.564,2.887c0.07,1.047,0.607,1.895,1.967,1.895
				c0.941,0,1.633-0.439,2.016-0.705l0.607,1.291c-0.25,0.227-1.311,0.895-2.814,0.895c-2.719,0-3.77-1.658-3.77-4.043
				c0-2.373,1.326-4.447,3.947-4.447C287.275,86.912,288.322,87.711,288.322,89.141z M285.604,88.271
				c-1.285,0-1.859,1.229-1.906,2.42c1.182-0.023,2.861-0.287,2.861-1.525C286.559,88.58,286.178,88.271,285.604,88.271z"/>
			<path fill="#FFFFFF" d="M292.703,88.223c-0.68,0-1.193,0.322-1.193,0.967c0,0.729,0.764,0.953,1.514,1.166
				c1.252,0.348,2.623,0.754,2.623,2.494c0,1.658-1.371,2.553-3.088,2.553c-1.002,0-2.266-0.156-2.943-0.49v-2.229l1.443-0.107
				v0.764c0,0.309,0.082,0.428,0.369,0.547c0.297,0.107,0.666,0.156,1.049,0.156c0.799,0,1.264-0.299,1.264-0.969
				c0-0.773-0.703-0.916-1.562-1.141c-1.182-0.301-2.48-0.705-2.48-2.482c0-1.656,1.408-2.539,3.09-2.539
				c1.084,0,2.027,0.334,2.658,0.645v1.916l-1.443,0.109v-0.668c0-0.309-0.084-0.428-0.369-0.547
				C293.324,88.26,293.084,88.223,292.703,88.223z"/>
			<path fill="#FFFFFF" d="M303.281,89.141c0,2.457-2.67,2.875-4.555,2.887c0.061,1.047,0.598,1.895,1.957,1.895
				c0.953,0,1.635-0.439,2.016-0.705l0.607,1.291c-0.25,0.227-1.311,0.895-2.814,0.895c-2.719,0-3.768-1.658-3.768-4.043
				c0-2.373,1.324-4.447,3.945-4.447C302.244,86.912,303.281,87.711,303.281,89.141z M300.562,88.271
				c-1.287,0-1.859,1.229-1.908,2.42c1.182-0.023,2.865-0.287,2.865-1.525C301.52,88.58,301.137,88.271,300.562,88.271z"/>
			<path fill="#FFFFFF" d="M305.396,88.975c0-0.348-0.096-0.463-0.406-0.477l-0.668-0.049V87.15h2.705v1.205
				c0.371-0.799,1.217-1.443,2.266-1.443c0.527,0,1.014,0.096,1.539,0.357v2.373l-1.49,0.119v-0.74c0-0.189-0.033-0.332-0.156-0.395
				c-0.143-0.07-0.26-0.082-0.428-0.082c-0.871,0-1.465,0.691-1.465,1.609v3.721l1.395,0.061v1.264h-4.283v-1.217l0.527-0.047
				c0.297-0.037,0.465-0.131,0.465-0.527V88.975z"/>
			<path fill="#FFFFFF" d="M320.027,87.15v1.252l-0.488,0.035c-0.213,0.012-0.346,0.074-0.439,0.383l-2.062,6.379h-2.445
				l-2.242-6.367c-0.094-0.287-0.168-0.383-0.465-0.395l-0.453-0.035V87.15h3.756v1.287l-0.979,0.049l1.646,5.258h0.035l1.598-5.258
				l-0.834-0.049V87.15H320.027z"/>
			<path fill="#FFFFFF" d="M327.342,89.141c0,2.457-2.67,2.875-4.555,2.887c0.061,1.047,0.607,1.895,1.967,1.895
				c0.943,0,1.633-0.439,2.016-0.705l0.607,1.291c-0.262,0.227-1.311,0.895-2.814,0.895c-2.719,0-3.779-1.658-3.779-4.043
				c0-2.373,1.336-4.447,3.959-4.447C326.305,86.912,327.342,87.711,327.342,89.141z M324.623,88.271
				c-1.275,0-1.848,1.229-1.896,2.42c1.18-0.023,2.861-0.287,2.861-1.525C325.588,88.58,325.195,88.271,324.623,88.271z"/>
			<path fill="#FFFFFF" d="M331.65,93.898l0.574-0.047c0.271-0.012,0.416-0.121,0.416-0.443v-7.438l-0.908-0.049v-1.359h2.875
				l4.531,7.346h0.025v-5.938l-1.051-0.049v-1.359h3.9v1.299l-0.574,0.047c-0.238,0.014-0.383,0.156-0.383,0.49v8.801h-1.871
				l-4.627-7.453h-0.033v6.045l1.047,0.049v1.359h-3.922V93.898z"/>
			<path fill="#FFFFFF" d="M346.428,86.912c1.193,0,3.566,0.369,3.566,4.041c0,3.076-1.705,4.484-3.816,4.484
				c-2.145,0-3.553-1.373-3.553-4.27C342.625,87.842,344.783,86.912,346.428,86.912z M348.051,91.217
				c0-1.789-0.43-2.898-1.717-2.898c-1.266,0-1.777,1.086-1.777,2.623c0,1.49,0.215,3.088,1.75,3.088
				C347.549,94.029,348.051,92.873,348.051,91.217z"/>
			<path fill="#FFFFFF" d="M357.914,87.473l1.67,5.949h0.035l1.084-4.936l-0.822-0.049V87.15h3.221v1.238l-0.525,0.025
				c-0.215,0.023-0.334,0.084-0.441,0.381l-1.514,6.404h-2.301l-1.312-4.77h-0.047l-1.359,4.77h-2.352l-1.619-6.379
				c-0.096-0.287-0.168-0.383-0.465-0.406l-0.453-0.025V87.15h3.658v1.287l-0.893,0.049l1.098,4.9h0.033l1.754-5.914H357.914z"/>
		</g>
	</g>
</g>
</svg>
