<?xml version="1.0" encoding="utf-8"?>
<!-- Generator: Adobe Illustrator 16.0.4, SVG Export Plug-In . SVG Version: 6.00 Build 0)  -->
<!DOCTYPE svg PUBLIC "-//W3C//DTD SVG 1.1//EN" "http://www.w3.org/Graphics/SVG/1.1/DTD/svg11.dtd">
<svg version="1.1" id="Layer_1" xmlns="http://www.w3.org/2000/svg" xmlns:xlink="http://www.w3.org/1999/xlink" x="0px" y="0px"
	 width="500px" height="180px" viewBox="0 0 500 180" enable-background="new 0 0 500 180" xml:space="preserve">
<g>
	<linearGradient id="SVGID_1_" gradientUnits="userSpaceOnUse" x1="163.522" y1="72.5" x2="163.522" y2="107.5">
		<stop  offset="0" style="stop-color:#20508D"/>
		<stop  offset="1" style="stop-color:#1B4167"/>
	</linearGradient>
	<path fill="url(#SVGID_1_)" stroke="#1A4060" stroke-miterlimit="10" d="M233.522,100.5c0,3.864-3.135,7-7,7H100.521
		c-3.865,0-7-3.136-7-7v-21c0-3.867,3.135-7,7-7h126.001c3.865,0,7,3.133,7,7V100.5z"/>
	<g>
		<path fill="#FFFFFF" d="M213.847,92.528c-2.682-1.126-5.768-1.781-9.056-1.786c-5.442-0.016-10.337,1.729-13.749,4.521
			c0,0-0.046,0.389,0.291,0.311l0.102-0.047c3.75-1.84,8.363-2.927,13.356-2.915c2.552,0.005,5.003,0.304,7.29,0.831
			C212.081,93.442,214.468,94.33,213.847,92.528z"/>
		<path fill="#FFFFFF" d="M221.884,100.294c-2.809-2.793-7.061-4.981-11.969-5.847c-2.971-0.523-5.815-0.494-8.346-0.018
			c-0.732,1.345,1.508,1.02,1.508,1.02c2.117-0.059,4.354,0.098,6.658,0.501c4.504,0.796,8.564,2.411,11.775,4.49l0.086,0.056
			C221.892,100.614,221.884,100.294,221.884,100.294z"/>
		<path fill="#FFFFFF" d="M207.108,81.794c-0.41-1.106-1.814-0.798-1.918,0.22c-0.085,0.825,0.648,1.776,1.217,2.578
			c0.42-0.29,0.863-0.543,1.324-0.762C207.622,83.361,207.405,82.593,207.108,81.794z"/>
		<path fill="#FFFFFF" d="M212.046,82.918c0.121-0.837,0.211-1.737-0.164-2.32c-0.561-0.868-1.963-0.546-1.824,0.622
			c0.082,0.684,0.201,1.325,0.307,1.793c0.379-0.057,0.766-0.096,1.158-0.106C211.7,82.901,211.872,82.915,212.046,82.918z"/>
		<path fill="#FFFFFF" d="M217.007,81.365c-0.166-1.091-1.586-1.306-1.934-0.072c-0.221,0.783-0.377,1.54-0.469,2.062
			c0.52,0.166,1.02,0.371,1.496,0.625C216.587,83.127,217.126,82.163,217.007,81.365z"/>
		<path fill="#FFFFFF" d="M219.339,86.833c0.812-0.472,1.73-1.011,1.982-1.728c0.344-0.966-0.803-1.806-1.652-0.963
			c-0.555,0.551-1.033,1.102-1.344,1.487C218.696,86,219.028,86.407,219.339,86.833z"/>
		<path fill="#FFFFFF" d="M222.878,88.288c-1,0.378-1.896,0.817-2.248,1.02c0.156,0.436,0.291,0.884,0.387,1.349
			c1.021-0.125,2.332-0.194,2.951-0.828C224.694,89.087,224.013,87.863,222.878,88.288z"/>
		<path fill="#FFFFFF" d="M203.635,87.894c1.755-2.146,4.331-3.543,7.226-3.62c5.33-0.144,9.67,4.233,9.705,9.784
			c0.004,1.052-0.145,2.064-0.424,3.021c0,0-0.277,0.221-0.551-0.11c0.055-0.41,0.09-0.824,0.09-1.252
			c-0.033-5.03-3.971-9.006-8.805-8.875c-1.846,0.05-3.547,0.696-4.948,1.75C205.928,88.592,204.048,89.559,203.635,87.894z"/>
	</g>
	<g>
		<path fill="#FFFFFF" d="M106.181,93.414l0.462-0.042c0.237-0.027,0.405-0.111,0.405-0.391v-6.507l-0.797-0.042v-1.189h3.819
			c2.057,0,3.358,0.671,3.358,2.575c0,1.398-0.909,2.154-1.679,2.462c0.377,0.14,0.587,0.378,0.797,0.854l1.008,2.197l0.798,0.027
			v1.189h-3.456v-1.134l0.405-0.042c0.322-0.041,0.393-0.167,0.267-0.447l-0.658-1.399c-0.196-0.433-0.392-0.644-0.882-0.644h-1.273
			v2.435l0.91,0.042v1.189h-3.484V93.414z M109.973,89.553c1.189,0,1.722-0.545,1.722-1.539c0-1.26-0.729-1.414-1.917-1.414h-1.022
			v2.953H109.973z"/>
		<path fill="#FFFFFF" d="M120.751,89.244c0,2.156-2.337,2.52-3.987,2.533c0.056,0.91,0.531,1.65,1.721,1.65
			c0.825,0,1.427-0.377,1.763-0.615l0.532,1.134c-0.225,0.196-1.147,0.784-2.463,0.784c-2.379,0-3.302-1.456-3.302-3.54
			c0-2.071,1.161-3.891,3.455-3.891C119.842,87.3,120.751,87.999,120.751,89.244z M118.372,88.489c-1.119,0-1.622,1.077-1.665,2.113
			c1.036-0.015,2.505-0.252,2.505-1.329C119.212,88.756,118.877,88.489,118.372,88.489z"/>
		<path fill="#FFFFFF" d="M124.589,88.447c-0.602,0-1.049,0.28-1.049,0.84c0,0.644,0.671,0.839,1.328,1.021
			c1.092,0.308,2.295,0.657,2.295,2.183c0,1.455-1.203,2.239-2.7,2.239c-0.882,0-1.987-0.141-2.575-0.435v-1.944l1.261-0.098v0.671
			c0,0.267,0.069,0.378,0.321,0.476c0.265,0.099,0.588,0.141,0.924,0.141c0.699,0,1.104-0.267,1.104-0.854
			c0-0.672-0.615-0.798-1.371-0.993c-1.035-0.267-2.168-0.616-2.168-2.17c0-1.454,1.231-2.225,2.7-2.225
			c0.951,0,1.777,0.294,2.322,0.561v1.678l-1.26,0.099v-0.588c0-0.266-0.069-0.377-0.321-0.476
			C125.135,88.476,124.924,88.447,124.589,88.447z"/>
		<path fill="#FFFFFF" d="M133.842,89.244c0,2.156-2.337,2.52-3.987,2.533c0.056,0.91,0.53,1.65,1.72,1.65
			c0.826,0,1.428-0.377,1.764-0.615l0.531,1.134c-0.224,0.196-1.147,0.784-2.462,0.784c-2.379,0-3.303-1.456-3.303-3.54
			c0-2.071,1.162-3.891,3.456-3.891C132.932,87.3,133.842,87.999,133.842,89.244z M131.463,88.489c-1.12,0-1.624,1.077-1.666,2.113
			c1.036-0.015,2.506-0.252,2.506-1.329C132.303,88.756,131.967,88.489,131.463,88.489z"/>
		<path fill="#FFFFFF" d="M135.692,89.105c0-0.309-0.085-0.406-0.351-0.42l-0.588-0.043v-1.132h2.364v1.049
			c0.322-0.699,1.064-1.26,1.987-1.26c0.463,0,0.882,0.084,1.343,0.309v2.084l-1.301,0.098v-0.644c0-0.168-0.027-0.293-0.14-0.35
			c-0.126-0.056-0.224-0.069-0.378-0.069c-0.755,0-1.273,0.602-1.273,1.412v3.247l1.218,0.057v1.104h-3.75v-1.062l0.462-0.042
			c0.266-0.029,0.406-0.112,0.406-0.462V89.105z"/>
		<path fill="#FFFFFF" d="M148.498,87.511v1.09l-0.435,0.028c-0.181,0.014-0.294,0.07-0.377,0.336l-1.805,5.583h-2.141l-1.96-5.569
			c-0.084-0.251-0.153-0.336-0.405-0.35l-0.405-0.028v-1.09h3.288v1.118l-0.854,0.043l1.441,4.603h0.027l1.398-4.603l-0.727-0.043
			v-1.118H148.498z"/>
		<path fill="#FFFFFF" d="M154.897,89.244c0,2.156-2.337,2.52-3.987,2.533c0.056,0.91,0.53,1.65,1.72,1.65
			c0.826,0,1.428-0.377,1.764-0.615l0.531,1.134c-0.224,0.196-1.147,0.784-2.462,0.784c-2.379,0-3.303-1.456-3.303-3.54
			c0-2.071,1.162-3.891,3.456-3.891C153.987,87.3,154.897,87.999,154.897,89.244z M152.519,88.489c-1.12,0-1.623,1.077-1.666,2.113
			c1.036-0.015,2.506-0.252,2.506-1.329C153.358,88.756,153.022,88.489,152.519,88.489z"/>
		<path fill="#FFFFFF" d="M158.666,93.414l0.504-0.042c0.238-0.014,0.363-0.111,0.363-0.391v-6.507l-0.797-0.042v-1.189h2.519
			l3.961,6.423h0.027v-5.191l-0.924-0.042v-1.189h3.414v1.134l-0.504,0.042c-0.209,0.014-0.336,0.139-0.336,0.433v7.696h-1.637
			l-4.044-6.521h-0.027v5.289l0.909,0.042v1.189h-3.429V93.414z"/>
		<path fill="#FFFFFF" d="M171.601,87.3c1.035,0,3.121,0.322,3.121,3.54c0,2.687-1.498,3.918-3.345,3.918
			c-1.876,0-3.106-1.203-3.106-3.736C168.271,88.112,170.159,87.3,171.601,87.3z M173.015,91.064c0-1.568-0.379-2.533-1.498-2.533
			c-1.105,0-1.553,0.951-1.553,2.295c0,1.301,0.182,2.7,1.525,2.7C172.58,93.526,173.015,92.519,173.015,91.064z"/>
		<path fill="#FFFFFF" d="M181.651,87.789l1.455,5.206h0.027l0.952-4.323l-0.714-0.043v-1.118h2.812v1.076l-0.461,0.028
			c-0.183,0.014-0.295,0.07-0.379,0.335l-1.329,5.598h-2.015l-1.146-4.17h-0.043l-1.189,4.17h-2.057l-1.414-5.583
			c-0.084-0.251-0.153-0.336-0.404-0.35l-0.406-0.028v-1.076h3.203v1.118l-0.783,0.043l0.967,4.295h0.027l1.539-5.178H181.651z"/>
	</g>
</g>
<g>
	<path fill="#20508D" stroke="#1A4060" stroke-miterlimit="10" d="M406.479,100.5c0,3.863-3.135,7-7,7h-126c-3.866,0-7-3.137-7-7
		v-21c0-3.867,3.134-7,7-7h126c3.865,0,7,3.133,7,7V100.5z"/>
	<g>
		<path fill="#FFFFFF" d="M386.804,92.527c-2.683-1.125-5.769-1.781-9.056-1.785c-5.443-0.016-10.338,1.729-13.749,4.52
			c0,0-0.046,0.389,0.29,0.311l0.102-0.047c3.751-1.84,8.363-2.926,13.357-2.914c2.552,0.004,5.002,0.303,7.289,0.83
			C385.037,93.441,387.424,94.33,386.804,92.527z"/>
		<path fill="#FFFFFF" d="M394.841,100.293c-2.81-2.793-7.061-4.98-11.97-5.846c-2.971-0.523-5.814-0.494-8.345-0.018
			c-0.732,1.344,1.507,1.02,1.507,1.02c2.117-0.059,4.354,0.098,6.658,0.5c4.504,0.797,8.565,2.412,11.775,4.49l0.086,0.057
			C394.848,100.613,394.841,100.293,394.841,100.293z"/>
		<path fill="#FFFFFF" d="M380.065,81.793c-0.411-1.105-1.815-0.797-1.919,0.221c-0.084,0.824,0.648,1.775,1.217,2.578
			c0.42-0.291,0.863-0.543,1.324-0.762C380.579,83.361,380.361,82.592,380.065,81.793z"/>
		<path fill="#FFFFFF" d="M385.003,82.918c0.12-0.838,0.21-1.738-0.165-2.32c-0.56-0.869-1.962-0.547-1.824,0.621
			c0.082,0.684,0.201,1.326,0.308,1.793c0.379-0.057,0.766-0.096,1.157-0.105C384.657,82.9,384.828,82.914,385.003,82.918z"/>
		<path fill="#FFFFFF" d="M389.963,81.365c-0.166-1.092-1.586-1.307-1.934-0.072c-0.221,0.783-0.377,1.539-0.469,2.062
			c0.52,0.166,1.02,0.371,1.496,0.625C389.544,83.127,390.082,82.162,389.963,81.365z"/>
		<path fill="#FFFFFF" d="M392.296,86.832c0.812-0.471,1.729-1.01,1.982-1.727c0.343-0.967-0.804-1.807-1.653-0.963
			c-0.555,0.551-1.033,1.102-1.344,1.486C391.652,86,391.985,86.406,392.296,86.832z"/>
		<path fill="#FFFFFF" d="M395.834,88.287c-1,0.379-1.896,0.818-2.248,1.02c0.156,0.436,0.291,0.885,0.387,1.35
			c1.021-0.125,2.333-0.195,2.951-0.828C397.65,89.086,396.97,87.863,395.834,88.287z"/>
		<path fill="#FFFFFF" d="M376.592,87.893c1.754-2.146,4.33-3.543,7.226-3.619c5.33-0.145,9.67,4.232,9.705,9.783
			c0.004,1.053-0.146,2.064-0.425,3.021c0,0-0.277,0.221-0.55-0.109c0.054-0.41,0.089-0.824,0.089-1.252
			c-0.032-5.031-3.971-9.006-8.804-8.875c-1.847,0.049-3.548,0.695-4.948,1.75C378.885,88.592,377.004,89.559,376.592,87.893z"/>
	</g>
	<g>
		<path fill="#FFFFFF" d="M279.138,93.414l0.462-0.043c0.237-0.027,0.405-0.111,0.405-0.391v-6.506l-0.797-0.043v-1.189h3.819
			c2.057,0,3.358,0.672,3.358,2.576c0,1.398-0.91,2.154-1.68,2.461c0.378,0.141,0.588,0.379,0.798,0.854l1.007,2.197l0.799,0.027
			v1.189h-3.457v-1.133l0.406-0.043c0.322-0.041,0.393-0.166,0.266-0.447l-0.658-1.398c-0.195-0.434-0.391-0.645-0.881-0.645h-1.273
			v2.436l0.91,0.041v1.189h-3.484V93.414z M282.929,89.553c1.189,0,1.723-0.545,1.723-1.539c0-1.26-0.729-1.414-1.918-1.414h-1.021
			v2.953H282.929z"/>
		<path fill="#FFFFFF" d="M293.708,89.244c0,2.156-2.337,2.52-3.988,2.533c0.057,0.91,0.532,1.65,1.722,1.65
			c0.825,0,1.427-0.377,1.763-0.615l0.532,1.133c-0.225,0.197-1.147,0.785-2.463,0.785c-2.38,0-3.302-1.457-3.302-3.541
			c0-2.07,1.16-3.891,3.455-3.891C292.799,87.299,293.708,87.998,293.708,89.244z M291.329,88.488c-1.119,0-1.623,1.078-1.665,2.113
			c1.036-0.014,2.504-0.252,2.504-1.328C292.168,88.756,291.834,88.488,291.329,88.488z"/>
		<path fill="#FFFFFF" d="M297.546,88.447c-0.602,0-1.049,0.279-1.049,0.84c0,0.643,0.671,0.838,1.328,1.021
			c1.091,0.307,2.294,0.656,2.294,2.182c0,1.455-1.203,2.24-2.699,2.24c-0.882,0-1.987-0.141-2.575-0.436v-1.943l1.261-0.098v0.67
			c0,0.268,0.068,0.379,0.32,0.477c0.266,0.098,0.588,0.141,0.924,0.141c0.7,0,1.105-0.268,1.105-0.854
			c0-0.672-0.615-0.799-1.371-0.994c-1.035-0.266-2.168-0.615-2.168-2.17c0-1.453,1.23-2.225,2.699-2.225
			c0.951,0,1.777,0.295,2.323,0.561v1.678l-1.26,0.1v-0.588c0-0.266-0.069-0.377-0.321-0.477
			C298.092,88.475,297.881,88.447,297.546,88.447z"/>
		<path fill="#FFFFFF" d="M306.799,89.244c0,2.156-2.337,2.52-3.988,2.533c0.057,0.91,0.531,1.65,1.721,1.65
			c0.826,0,1.428-0.377,1.764-0.615l0.531,1.133c-0.224,0.197-1.147,0.785-2.463,0.785c-2.379,0-3.303-1.457-3.303-3.541
			c0-2.07,1.162-3.891,3.457-3.891C305.889,87.299,306.799,87.998,306.799,89.244z M304.42,88.488c-1.12,0-1.624,1.078-1.666,2.113
			c1.035-0.014,2.506-0.252,2.506-1.328C305.26,88.756,304.924,88.488,304.42,88.488z"/>
		<path fill="#FFFFFF" d="M308.648,89.105c0-0.309-0.084-0.406-0.35-0.42l-0.588-0.043V87.51h2.364v1.049
			c0.322-0.699,1.064-1.26,1.987-1.26c0.463,0,0.882,0.084,1.343,0.309v2.084l-1.301,0.098v-0.643c0-0.168-0.027-0.293-0.14-0.35
			c-0.126-0.057-0.224-0.07-0.378-0.07c-0.755,0-1.273,0.602-1.273,1.412v3.248l1.218,0.057v1.104h-3.75v-1.062l0.462-0.041
			c0.266-0.029,0.405-0.113,0.405-0.463V89.105z"/>
		<path fill="#FFFFFF" d="M321.455,87.51v1.09l-0.435,0.029c-0.181,0.014-0.294,0.07-0.377,0.336l-1.805,5.582h-2.141l-1.96-5.568
			c-0.084-0.252-0.153-0.336-0.405-0.35l-0.405-0.029v-1.09h3.287v1.119l-0.853,0.043l1.44,4.602h0.027l1.399-4.602l-0.727-0.043
			V87.51H321.455z"/>
		<path fill="#FFFFFF" d="M327.854,89.244c0,2.156-2.337,2.52-3.987,2.533c0.056,0.91,0.53,1.65,1.72,1.65
			c0.826,0,1.428-0.377,1.764-0.615l0.531,1.133c-0.224,0.197-1.147,0.785-2.462,0.785c-2.379,0-3.303-1.457-3.303-3.541
			c0-2.07,1.162-3.891,3.456-3.891C326.944,87.299,327.854,87.998,327.854,89.244z M325.476,88.488c-1.12,0-1.624,1.078-1.666,2.113
			c1.036-0.014,2.506-0.252,2.506-1.328C326.315,88.756,325.979,88.488,325.476,88.488z"/>
		<path fill="#FFFFFF" d="M331.623,93.414l0.504-0.043c0.238-0.014,0.363-0.111,0.363-0.391v-6.506l-0.797-0.043v-1.189h2.519
			l3.96,6.424h0.027v-5.191l-0.923-0.043v-1.189h3.413v1.135l-0.503,0.041c-0.21,0.014-0.336,0.139-0.336,0.434v7.695h-1.638
			l-4.043-6.52h-0.027v5.289l0.909,0.041v1.189h-3.429V93.414z"/>
		<path fill="#FFFFFF" d="M344.557,87.299c1.036,0,3.121,0.322,3.121,3.541c0,2.686-1.497,3.918-3.344,3.918
			c-1.876,0-3.107-1.203-3.107-3.736C341.227,88.111,343.115,87.299,344.557,87.299z M345.971,91.064
			c0-1.568-0.378-2.533-1.497-2.533c-1.106,0-1.554,0.951-1.554,2.295c0,1.301,0.182,2.699,1.525,2.699
			C345.537,93.525,345.971,92.518,345.971,91.064z"/>
		<path fill="#FFFFFF" d="M354.607,87.789l1.455,5.205h0.027l0.953-4.322l-0.715-0.043V87.51h2.812v1.076l-0.461,0.029
			c-0.182,0.014-0.294,0.07-0.378,0.334l-1.329,5.598h-2.016l-1.146-4.17h-0.042l-1.189,4.17h-2.057l-1.414-5.582
			c-0.084-0.252-0.153-0.336-0.405-0.35l-0.406-0.029V87.51h3.204v1.119l-0.784,0.043l0.967,4.295h0.027l1.539-5.178H354.607z"/>
	</g>
</g>
</svg>
