<?xml version="1.0" encoding="utf-8"?>
<!-- Generator: Adobe Illustrator 16.0.4, SVG Export Plug-In . SVG Version: 6.00 Build 0)  -->
<!DOCTYPE svg PUBLIC "-//W3C//DTD SVG 1.1//EN" "http://www.w3.org/Graphics/SVG/1.1/DTD/svg11.dtd">
<svg version="1.1" id="Layer_1" xmlns="http://www.w3.org/2000/svg" xmlns:xlink="http://www.w3.org/1999/xlink" x="0px" y="0px"
	 width="500px" height="180px" viewBox="0 0 500 180" enable-background="new 0 0 500 180" xml:space="preserve">
<g>
	<linearGradient id="SVGID_1_" gradientUnits="userSpaceOnUse" x1="163.5215" y1="72.5" x2="163.5215" y2="107.5">
		<stop  offset="0" style="stop-color:#F5F5F5"/>
		<stop  offset="1" style="stop-color:#D9D9D9"/>
	</linearGradient>
	<path fill="url(#SVGID_1_)" stroke="#CECECE" stroke-miterlimit="10" d="M233.521,100.5c0,3.864-3.135,7-7,7h-126
		c-3.866,0-7-3.136-7-7v-21c0-3.867,3.134-7,7-7h126c3.865,0,7,3.133,7,7V100.5z"/>
	<g>
		<path fill="#1B4167" d="M213.847,92.217c-2.683-1.129-5.769-1.782-9.056-1.787c-5.443-0.016-10.338,1.729-13.749,4.521
			c0,0-0.046,0.387,0.29,0.31l0.102-0.048c3.751-1.839,8.363-2.926,13.357-2.914c2.552,0.004,5.002,0.303,7.289,0.831
			C212.08,93.13,214.467,94.017,213.847,92.217z"/>
		<path fill="#1B4167" d="M221.884,99.982c-2.81-2.794-7.061-4.984-11.97-5.848c-2.971-0.523-5.814-0.494-8.345-0.018
			c-0.732,1.344,1.507,1.018,1.507,1.018c2.117-0.057,4.354,0.099,6.658,0.502c4.504,0.797,8.565,2.41,11.775,4.491l0.086,0.055
			C221.891,100.301,221.884,99.982,221.884,99.982z"/>
		<path fill="#EB9C00" d="M207.108,81.481c-0.411-1.107-1.815-0.798-1.919,0.219c-0.084,0.825,0.648,1.777,1.217,2.579
			c0.42-0.291,0.863-0.544,1.324-0.763C207.622,83.049,207.404,82.279,207.108,81.481z"/>
		<path fill="#EB9C00" d="M212.046,82.605c0.12-0.838,0.21-1.736-0.165-2.32c-0.56-0.868-1.962-0.547-1.824,0.622
			c0.082,0.683,0.201,1.324,0.308,1.794c0.379-0.058,0.766-0.096,1.157-0.107C211.7,82.589,211.871,82.603,212.046,82.605z"/>
		<path fill="#EB9C00" d="M217.006,81.052c-0.166-1.09-1.586-1.304-1.934-0.072c-0.221,0.784-0.377,1.541-0.469,2.063
			c0.52,0.166,1.02,0.371,1.496,0.624C216.587,82.814,217.125,81.851,217.006,81.052z"/>
		<path fill="#EB9C00" d="M219.339,86.52c0.812-0.472,1.729-1.01,1.982-1.727c0.343-0.967-0.804-1.805-1.653-0.965
			c-0.555,0.552-1.033,1.104-1.344,1.488C218.695,85.688,219.028,86.094,219.339,86.52z"/>
		<path fill="#EB9C00" d="M222.877,87.976c-1,0.378-1.896,0.815-2.248,1.019c0.156,0.436,0.291,0.885,0.387,1.35
			c1.021-0.126,2.333-0.194,2.951-0.828C224.693,88.773,224.013,87.55,222.877,87.976z"/>
		<path fill="#EB9C00" d="M203.635,87.582c1.754-2.146,4.33-3.544,7.226-3.621c5.33-0.144,9.67,4.233,9.705,9.784
			c0.004,1.051-0.146,2.064-0.425,3.021c0,0-0.277,0.222-0.55-0.111c0.054-0.41,0.089-0.823,0.089-1.251
			c-0.032-5.031-3.971-9.006-8.804-8.875c-1.847,0.05-3.548,0.697-4.948,1.75C205.928,88.279,204.047,89.245,203.635,87.582z"/>
	</g>
	<g>
		<path fill="#545456" d="M106.181,93.415l0.462-0.042c0.237-0.027,0.405-0.112,0.405-0.392v-6.507l-0.797-0.042v-1.189h3.82
			c2.057,0,3.358,0.671,3.358,2.575c0,1.399-0.909,2.154-1.679,2.462c0.377,0.141,0.587,0.378,0.797,0.854l1.007,2.198l0.798,0.027
			v1.189h-3.457v-1.134l0.406-0.042c0.322-0.041,0.392-0.168,0.266-0.448l-0.658-1.399c-0.196-0.433-0.392-0.644-0.881-0.644h-1.273
			v2.435l0.91,0.043v1.189h-3.484V93.415z M109.972,89.554c1.189,0,1.722-0.546,1.722-1.539c0-1.261-0.728-1.414-1.917-1.414h-1.022
			v2.953H109.972z"/>
		<path fill="#545456" d="M120.751,89.245c0,2.155-2.337,2.519-3.988,2.532c0.056,0.91,0.532,1.651,1.721,1.651
			c0.825,0,1.427-0.378,1.763-0.615l0.532,1.134c-0.225,0.195-1.147,0.783-2.463,0.783c-2.379,0-3.302-1.456-3.302-3.54
			c0-2.071,1.161-3.891,3.456-3.891C119.842,87.3,120.751,88,120.751,89.245z M118.372,88.489c-1.119,0-1.623,1.078-1.665,2.113
			c1.036-0.015,2.504-0.251,2.504-1.329C119.211,88.756,118.876,88.489,118.372,88.489z"/>
		<path fill="#545456" d="M124.589,88.447c-0.602,0-1.049,0.28-1.049,0.84c0,0.644,0.671,0.84,1.328,1.021
			c1.091,0.308,2.294,0.658,2.294,2.184c0,1.455-1.203,2.238-2.7,2.238c-0.882,0-1.987-0.14-2.575-0.434v-1.945l1.26-0.098v0.671
			c0,0.267,0.069,0.378,0.321,0.477c0.265,0.098,0.588,0.14,0.924,0.14c0.7,0,1.105-0.267,1.105-0.854
			c0-0.672-0.615-0.797-1.372-0.993c-1.035-0.267-2.168-0.616-2.168-2.169c0-1.455,1.231-2.226,2.7-2.226
			c0.951,0,1.777,0.294,2.323,0.561v1.679l-1.26,0.098v-0.588c0-0.266-0.07-0.377-0.321-0.475
			C125.135,88.476,124.924,88.447,124.589,88.447z"/>
		<path fill="#545456" d="M133.842,89.245c0,2.155-2.337,2.519-3.988,2.532c0.056,0.91,0.531,1.651,1.72,1.651
			c0.826,0,1.428-0.378,1.764-0.615l0.531,1.134c-0.224,0.195-1.147,0.783-2.462,0.783c-2.379,0-3.303-1.456-3.303-3.54
			c0-2.071,1.162-3.891,3.457-3.891C132.931,87.3,133.842,88,133.842,89.245z M131.462,88.489c-1.12,0-1.624,1.078-1.666,2.113
			c1.036-0.015,2.505-0.251,2.505-1.329C132.302,88.756,131.966,88.489,131.462,88.489z"/>
		<path fill="#545456" d="M135.692,89.105c0-0.309-0.084-0.406-0.35-0.42l-0.588-0.042v-1.133h2.364v1.05
			c0.322-0.7,1.064-1.261,1.987-1.261c0.462,0,0.882,0.085,1.343,0.309v2.084l-1.301,0.099v-0.645c0-0.167-0.027-0.293-0.14-0.35
			c-0.125-0.056-0.223-0.069-0.377-0.069c-0.755,0-1.273,0.602-1.273,1.413v3.247l1.218,0.056v1.105h-3.75v-1.063l0.462-0.042
			c0.266-0.028,0.406-0.111,0.406-0.462V89.105z"/>
		<path fill="#545456" d="M148.498,87.511v1.091l-0.435,0.028c-0.181,0.014-0.294,0.069-0.377,0.336l-1.805,5.583h-2.141
			l-1.96-5.569c-0.084-0.252-0.153-0.336-0.405-0.35l-0.406-0.028v-1.091h3.288v1.119l-0.853,0.042l1.441,4.603h0.027l1.399-4.603
			l-0.727-0.042v-1.119H148.498z"/>
		<path fill="#545456" d="M154.897,89.245c0,2.155-2.337,2.519-3.988,2.532c0.056,0.91,0.531,1.651,1.72,1.651
			c0.826,0,1.428-0.378,1.764-0.615l0.531,1.134c-0.224,0.195-1.147,0.783-2.462,0.783c-2.379,0-3.303-1.456-3.303-3.54
			c0-2.071,1.162-3.891,3.457-3.891C153.987,87.3,154.897,88,154.897,89.245z M152.519,88.489c-1.12,0-1.624,1.078-1.666,2.113
			c1.036-0.015,2.506-0.251,2.506-1.329C153.358,88.756,153.022,88.489,152.519,88.489z"/>
		<path fill="#545456" d="M158.666,93.415l0.504-0.042c0.238-0.014,0.363-0.112,0.363-0.392v-6.507l-0.797-0.042v-1.189h2.519
			l3.96,6.423h0.027v-5.191l-0.923-0.042v-1.189h3.413v1.134l-0.503,0.042c-0.21,0.014-0.336,0.14-0.336,0.434v7.696h-1.638
			l-4.043-6.521h-0.027v5.288l0.909,0.043v1.189h-3.429V93.415z"/>
		<path fill="#545456" d="M171.6,87.3c1.036,0,3.121,0.322,3.121,3.54c0,2.687-1.497,3.918-3.344,3.918
			c-1.876,0-3.107-1.203-3.107-3.735C168.27,88.112,170.158,87.3,171.6,87.3z M173.014,91.064c0-1.568-0.378-2.533-1.497-2.533
			c-1.106,0-1.554,0.951-1.554,2.295c0,1.301,0.182,2.7,1.525,2.7C172.58,93.526,173.014,92.52,173.014,91.064z"/>
		<path fill="#545456" d="M181.65,87.79l1.455,5.205h0.027l0.953-4.323l-0.715-0.042v-1.119h2.812v1.077l-0.461,0.028
			c-0.182,0.014-0.294,0.069-0.378,0.335l-1.329,5.598H182l-1.146-4.17h-0.042l-1.189,4.17h-2.057l-1.414-5.583
			c-0.084-0.252-0.153-0.336-0.405-0.35l-0.406-0.028v-1.077h3.204v1.119l-0.784,0.042l0.967,4.295h0.027l1.539-5.177H181.65z"/>
	</g>
</g>
<g>
	<path fill="#F5F5F5" stroke="#CECECE" stroke-miterlimit="10" d="M406.479,100.5c0,3.863-3.135,7-7,7h-126c-3.865,0-7-3.137-7-7
		v-21c0-3.867,3.135-7,7-7h126c3.865,0,7,3.133,7,7V100.5z"/>
	<g>
		<path fill="#1B4167" d="M386.804,92.217c-2.683-1.129-5.769-1.783-9.056-1.787c-5.443-0.016-10.338,1.729-13.749,4.521
			c0,0-0.046,0.387,0.29,0.309l0.102-0.047c3.751-1.84,8.363-2.926,13.357-2.914c2.552,0.004,5.002,0.303,7.289,0.83
			C385.037,93.129,387.424,94.016,386.804,92.217z"/>
		<path fill="#1B4167" d="M394.841,99.982c-2.81-2.795-7.061-4.984-11.97-5.848c-2.971-0.523-5.814-0.494-8.345-0.018
			c-0.732,1.344,1.507,1.018,1.507,1.018c2.117-0.057,4.354,0.098,6.658,0.502c4.504,0.797,8.565,2.41,11.775,4.49l0.086,0.055
			C394.848,100.301,394.841,99.982,394.841,99.982z"/>
		<path fill="#EB9C00" d="M380.065,81.48c-0.411-1.107-1.815-0.797-1.919,0.219c-0.084,0.826,0.648,1.777,1.217,2.58
			c0.42-0.291,0.863-0.545,1.324-0.764C380.579,83.049,380.361,82.279,380.065,81.48z"/>
		<path fill="#EB9C00" d="M385.003,82.605c0.12-0.838,0.21-1.736-0.165-2.32c-0.56-0.869-1.962-0.547-1.824,0.621
			c0.082,0.684,0.201,1.324,0.308,1.795c0.379-0.059,0.766-0.096,1.157-0.107C384.657,82.588,384.828,82.602,385.003,82.605z"/>
		<path fill="#EB9C00" d="M389.963,81.051c-0.166-1.09-1.586-1.303-1.934-0.072c-0.221,0.785-0.377,1.541-0.469,2.064
			c0.52,0.166,1.02,0.371,1.496,0.623C389.544,82.814,390.082,81.85,389.963,81.051z"/>
		<path fill="#EB9C00" d="M392.296,86.52c0.812-0.473,1.729-1.01,1.982-1.727c0.343-0.967-0.804-1.805-1.653-0.965
			c-0.555,0.551-1.033,1.104-1.344,1.488C391.652,85.688,391.985,86.094,392.296,86.52z"/>
		<path fill="#EB9C00" d="M395.834,87.975c-1,0.379-1.896,0.816-2.248,1.02c0.156,0.436,0.291,0.885,0.387,1.35
			c1.021-0.127,2.333-0.195,2.951-0.828C397.65,88.773,396.97,87.549,395.834,87.975z"/>
		<path fill="#EB9C00" d="M376.592,87.582c1.754-2.146,4.33-3.545,7.226-3.621c5.33-0.145,9.67,4.232,9.705,9.783
			c0.004,1.051-0.146,2.064-0.425,3.021c0,0-0.277,0.223-0.55-0.111c0.054-0.41,0.089-0.822,0.089-1.25
			c-0.032-5.031-3.971-9.006-8.804-8.875c-1.847,0.049-3.548,0.697-4.948,1.75C378.885,88.279,377.004,89.244,376.592,87.582z"/>
	</g>
	<g>
		<path fill="#545456" d="M279.138,93.414l0.462-0.041c0.237-0.027,0.405-0.113,0.405-0.393v-6.506l-0.798-0.043v-1.189h3.82
			c2.057,0,3.357,0.672,3.357,2.576c0,1.398-0.908,2.154-1.678,2.461c0.377,0.141,0.587,0.379,0.797,0.854l1.008,2.199l0.798,0.027
			v1.189h-3.456v-1.135l0.405-0.041c0.321-0.041,0.392-0.168,0.267-0.449l-0.658-1.398c-0.196-0.434-0.393-0.645-0.882-0.645h-1.273
			v2.436l0.909,0.043v1.189h-3.483V93.414z M282.93,89.553c1.189,0,1.721-0.545,1.721-1.539c0-1.26-0.728-1.414-1.916-1.414h-1.022
			v2.953H282.93z"/>
		<path fill="#545456" d="M293.708,89.244c0,2.156-2.337,2.52-3.987,2.533c0.055,0.91,0.531,1.65,1.721,1.65
			c0.825,0,1.427-0.377,1.763-0.615l0.532,1.135c-0.225,0.195-1.147,0.783-2.463,0.783c-2.379,0-3.303-1.457-3.303-3.541
			c0-2.07,1.162-3.891,3.456-3.891C292.799,87.299,293.708,88,293.708,89.244z M291.329,88.488c-1.119,0-1.622,1.078-1.665,2.113
			c1.036-0.014,2.504-0.25,2.504-1.328C292.168,88.756,291.834,88.488,291.329,88.488z"/>
		<path fill="#545456" d="M297.546,88.447c-0.602,0-1.049,0.279-1.049,0.84c0,0.643,0.671,0.84,1.328,1.021
			c1.091,0.307,2.294,0.658,2.294,2.184c0,1.455-1.203,2.238-2.699,2.238c-0.882,0-1.987-0.141-2.575-0.434v-1.945l1.261-0.098v0.67
			c0,0.268,0.068,0.379,0.32,0.477c0.266,0.098,0.588,0.141,0.924,0.141c0.7,0,1.105-0.268,1.105-0.854
			c0-0.672-0.615-0.797-1.371-0.994c-1.035-0.266-2.168-0.615-2.168-2.168c0-1.455,1.23-2.227,2.699-2.227
			c0.951,0,1.777,0.295,2.323,0.561v1.68l-1.26,0.098v-0.588c0-0.266-0.069-0.377-0.321-0.475
			C298.092,88.475,297.881,88.447,297.546,88.447z"/>
		<path fill="#545456" d="M306.799,89.244c0,2.156-2.337,2.52-3.988,2.533c0.057,0.91,0.531,1.65,1.721,1.65
			c0.826,0,1.428-0.377,1.764-0.615l0.531,1.135c-0.224,0.195-1.147,0.783-2.463,0.783c-2.379,0-3.303-1.457-3.303-3.541
			c0-2.07,1.162-3.891,3.457-3.891C305.889,87.299,306.799,88,306.799,89.244z M304.42,88.488c-1.12,0-1.624,1.078-1.666,2.113
			c1.035-0.014,2.506-0.25,2.506-1.328C305.26,88.756,304.924,88.488,304.42,88.488z"/>
		<path fill="#545456" d="M308.648,89.105c0-0.309-0.084-0.406-0.35-0.42l-0.588-0.043V87.51h2.364v1.051
			c0.322-0.701,1.064-1.262,1.987-1.262c0.463,0,0.882,0.086,1.343,0.309v2.084l-1.301,0.1v-0.645c0-0.168-0.027-0.293-0.14-0.35
			c-0.126-0.057-0.224-0.07-0.378-0.07c-0.755,0-1.273,0.602-1.273,1.414v3.246l1.218,0.057v1.105h-3.75v-1.064l0.462-0.041
			c0.266-0.029,0.405-0.111,0.405-0.463V89.105z"/>
		<path fill="#545456" d="M321.455,87.51v1.092l-0.435,0.027c-0.181,0.014-0.294,0.07-0.377,0.336l-1.805,5.584h-2.141l-1.96-5.57
			c-0.084-0.252-0.153-0.336-0.405-0.35l-0.405-0.027V87.51h3.287v1.119l-0.853,0.043l1.44,4.602h0.027l1.399-4.602l-0.727-0.043
			V87.51H321.455z"/>
		<path fill="#545456" d="M327.854,89.244c0,2.156-2.337,2.52-3.987,2.533c0.056,0.91,0.53,1.65,1.72,1.65
			c0.826,0,1.428-0.377,1.764-0.615l0.531,1.135c-0.224,0.195-1.147,0.783-2.462,0.783c-2.379,0-3.303-1.457-3.303-3.541
			c0-2.07,1.162-3.891,3.456-3.891C326.944,87.299,327.854,88,327.854,89.244z M325.476,88.488c-1.12,0-1.624,1.078-1.666,2.113
			c1.036-0.014,2.506-0.25,2.506-1.328C326.315,88.756,325.979,88.488,325.476,88.488z"/>
		<path fill="#545456" d="M331.623,93.414l0.504-0.041c0.238-0.014,0.363-0.113,0.363-0.393v-6.506l-0.797-0.043v-1.189h2.519
			l3.96,6.424h0.027v-5.191l-0.923-0.043v-1.189h3.413v1.135l-0.503,0.041c-0.21,0.014-0.336,0.141-0.336,0.434v7.697h-1.638
			l-4.043-6.521h-0.027v5.289l0.909,0.043v1.189h-3.429V93.414z"/>
		<path fill="#545456" d="M344.557,87.299c1.036,0,3.121,0.322,3.121,3.541c0,2.686-1.497,3.918-3.344,3.918
			c-1.876,0-3.107-1.203-3.107-3.736C341.227,88.111,343.115,87.299,344.557,87.299z M345.971,91.064
			c0-1.568-0.378-2.533-1.497-2.533c-1.106,0-1.554,0.951-1.554,2.295c0,1.301,0.182,2.699,1.525,2.699
			C345.537,93.525,345.971,92.52,345.971,91.064z"/>
		<path fill="#545456" d="M354.607,87.789l1.455,5.205h0.027l0.953-4.322l-0.715-0.043V87.51h2.812v1.078l-0.461,0.027
			c-0.182,0.014-0.294,0.07-0.378,0.336l-1.329,5.598h-2.016l-1.146-4.17h-0.042l-1.189,4.17h-2.057l-1.414-5.584
			c-0.084-0.252-0.153-0.336-0.405-0.35l-0.406-0.027V87.51h3.204v1.119l-0.784,0.043l0.967,4.295h0.027l1.539-5.178H354.607z"/>
	</g>
</g>
</svg>
