<?xml version="1.0" encoding="utf-8"?>
<!-- Generator: Adobe Illustrator 16.0.4, SVG Export Plug-In . SVG Version: 6.00 Build 0)  -->
<!DOCTYPE svg PUBLIC "-//W3C//DTD SVG 1.1//EN" "http://www.w3.org/Graphics/SVG/1.1/DTD/svg11.dtd">
<svg version="1.1" id="Layer_1" xmlns="http://www.w3.org/2000/svg" xmlns:xlink="http://www.w3.org/1999/xlink" x="0px" y="0px"
	 width="500px" height="180px" viewBox="0 0 500 180" enable-background="new 0 0 500 180" xml:space="preserve">
<g>
	<linearGradient id="SVGID_1_" gradientUnits="userSpaceOnUse" x1="163.5215" y1="72.5" x2="163.5215" y2="107.5">
		<stop  offset="0" style="stop-color:#EBA843"/>
		<stop  offset="1" style="stop-color:#E58D08"/>
	</linearGradient>
	<path fill="url(#SVGID_1_)" stroke="#E2971F" stroke-miterlimit="10" d="M233.521,100.5c0,3.864-3.135,7-7,7h-126
		c-3.866,0-7-3.136-7-7v-21c0-3.867,3.134-7,7-7h126c3.865,0,7,3.133,7,7V100.5z"/>
	<g>
		<path fill="#FFFFFF" d="M213.847,92.215c-2.683-1.126-5.769-1.781-9.056-1.786c-5.443-0.016-10.338,1.729-13.749,4.521
			c0,0-0.046,0.389,0.29,0.311l0.102-0.047c3.751-1.84,8.363-2.927,13.357-2.915c2.552,0.005,5.002,0.304,7.289,0.831
			C212.08,93.129,214.467,94.017,213.847,92.215z"/>
		<path fill="#FFFFFF" d="M221.884,99.98c-2.81-2.793-7.061-4.981-11.97-5.847c-2.971-0.523-5.814-0.494-8.345-0.018
			c-0.732,1.345,1.507,1.02,1.507,1.02c2.117-0.059,4.354,0.098,6.658,0.501c4.504,0.796,8.565,2.411,11.775,4.49l0.086,0.056
			C221.891,100.301,221.884,99.98,221.884,99.98z"/>
		<path fill="#FFFFFF" d="M207.108,81.48c-0.411-1.106-1.815-0.798-1.919,0.22c-0.084,0.825,0.648,1.776,1.217,2.578
			c0.42-0.29,0.863-0.543,1.324-0.762C207.622,83.048,207.404,82.279,207.108,81.48z"/>
		<path fill="#FFFFFF" d="M212.046,82.604c0.12-0.837,0.21-1.737-0.165-2.32c-0.56-0.868-1.962-0.546-1.824,0.622
			c0.082,0.684,0.201,1.325,0.308,1.793c0.379-0.057,0.766-0.096,1.157-0.106C211.7,82.588,211.871,82.602,212.046,82.604z"/>
		<path fill="#FFFFFF" d="M217.006,81.052c-0.166-1.091-1.586-1.306-1.934-0.072c-0.221,0.783-0.377,1.54-0.469,2.062
			c0.52,0.166,1.02,0.371,1.496,0.625C216.587,82.813,217.125,81.85,217.006,81.052z"/>
		<path fill="#FFFFFF" d="M219.339,86.52c0.812-0.472,1.729-1.011,1.982-1.728c0.343-0.966-0.804-1.806-1.653-0.963
			c-0.555,0.551-1.033,1.102-1.344,1.487C218.695,85.687,219.028,86.094,219.339,86.52z"/>
		<path fill="#FFFFFF" d="M222.877,87.975c-1,0.378-1.896,0.817-2.248,1.02c0.156,0.436,0.291,0.884,0.387,1.349
			c1.021-0.125,2.333-0.194,2.951-0.828C224.693,88.773,224.013,87.55,222.877,87.975z"/>
		<path fill="#FFFFFF" d="M203.635,87.58c1.754-2.146,4.33-3.543,7.226-3.62c5.33-0.144,9.67,4.233,9.705,9.784
			c0.004,1.052-0.146,2.064-0.425,3.021c0,0-0.277,0.221-0.55-0.11c0.054-0.41,0.089-0.824,0.089-1.252
			c-0.032-5.03-3.971-9.006-8.804-8.875c-1.847,0.05-3.548,0.696-4.948,1.75C205.928,88.278,204.047,89.245,203.635,87.58z"/>
	</g>
	<g>
		<path fill="#FFFFFF" d="M106.181,93.413l0.462-0.041c0.237-0.027,0.405-0.111,0.405-0.392v-6.506l-0.797-0.043v-1.189h3.82
			c2.057,0,3.358,0.672,3.358,2.575c0,1.398-0.909,2.155-1.679,2.463c0.377,0.139,0.587,0.378,0.797,0.853l1.007,2.198l0.798,0.027
			v1.189h-3.457v-1.135l0.406-0.041c0.322-0.041,0.392-0.168,0.266-0.448l-0.658-1.399c-0.196-0.433-0.392-0.643-0.881-0.643h-1.273
			v2.434l0.91,0.043v1.189h-3.484V93.413z M109.972,89.554c1.189,0,1.722-0.547,1.722-1.541c0-1.26-0.728-1.412-1.917-1.412h-1.022
			v2.953H109.972z"/>
		<path fill="#FFFFFF" d="M120.751,89.243c0,2.156-2.337,2.521-3.988,2.534c0.056,0.909,0.532,1.649,1.721,1.649
			c0.825,0,1.427-0.376,1.763-0.615l0.532,1.135c-0.225,0.196-1.147,0.784-2.463,0.784c-2.379,0-3.302-1.456-3.302-3.541
			c0-2.071,1.161-3.89,3.456-3.89C119.842,87.3,120.751,87.999,120.751,89.243z M118.372,88.489c-1.119,0-1.623,1.078-1.665,2.112
			c1.036-0.014,2.504-0.251,2.504-1.328C119.211,88.756,118.876,88.489,118.372,88.489z"/>
		<path fill="#FFFFFF" d="M124.589,88.446c-0.602,0-1.049,0.28-1.049,0.841c0,0.643,0.671,0.838,1.328,1.021
			c1.091,0.308,2.294,0.658,2.294,2.183c0,1.456-1.203,2.24-2.7,2.24c-0.882,0-1.987-0.142-2.575-0.436v-1.943l1.26-0.098v0.67
			c0,0.267,0.069,0.378,0.321,0.476c0.265,0.099,0.588,0.142,0.924,0.142c0.7,0,1.105-0.267,1.105-0.854
			c0-0.672-0.615-0.798-1.372-0.993c-1.035-0.267-2.168-0.615-2.168-2.17c0-1.453,1.231-2.224,2.7-2.224
			c0.951,0,1.777,0.294,2.323,0.561v1.677l-1.26,0.099v-0.588c0-0.265-0.07-0.376-0.321-0.475
			C125.135,88.476,124.924,88.446,124.589,88.446z"/>
		<path fill="#FFFFFF" d="M133.842,89.243c0,2.156-2.337,2.521-3.988,2.534c0.056,0.909,0.531,1.649,1.72,1.649
			c0.826,0,1.428-0.376,1.764-0.615l0.531,1.135c-0.224,0.196-1.147,0.784-2.462,0.784c-2.379,0-3.303-1.456-3.303-3.541
			c0-2.071,1.162-3.89,3.457-3.89C132.931,87.3,133.842,87.999,133.842,89.243z M131.462,88.489c-1.12,0-1.624,1.078-1.666,2.112
			c1.036-0.014,2.505-0.251,2.505-1.328C132.302,88.756,131.966,88.489,131.462,88.489z"/>
		<path fill="#FFFFFF" d="M135.692,89.104c0-0.308-0.084-0.405-0.35-0.419l-0.588-0.044V87.51h2.364v1.05
			c0.322-0.699,1.064-1.26,1.987-1.26c0.462,0,0.882,0.084,1.343,0.308v2.085l-1.301,0.098v-0.645c0-0.166-0.027-0.292-0.14-0.349
			c-0.125-0.057-0.223-0.07-0.377-0.07c-0.755,0-1.273,0.602-1.273,1.412v3.247l1.218,0.058v1.104h-3.75v-1.063l0.462-0.041
			c0.266-0.03,0.406-0.112,0.406-0.463V89.104z"/>
		<path fill="#FFFFFF" d="M148.498,87.51v1.091l-0.435,0.027c-0.181,0.014-0.294,0.071-0.377,0.338l-1.805,5.582h-2.141l-1.96-5.568
			c-0.084-0.253-0.153-0.338-0.405-0.352l-0.406-0.027V87.51h3.288v1.118l-0.853,0.044l1.441,4.603h0.027l1.399-4.603l-0.727-0.044
			V87.51H148.498z"/>
		<path fill="#FFFFFF" d="M154.897,89.243c0,2.156-2.337,2.521-3.988,2.534c0.056,0.909,0.531,1.649,1.72,1.649
			c0.826,0,1.428-0.376,1.764-0.615l0.531,1.135c-0.224,0.196-1.147,0.784-2.462,0.784c-2.379,0-3.303-1.456-3.303-3.541
			c0-2.071,1.162-3.89,3.457-3.89C153.987,87.3,154.897,87.999,154.897,89.243z M152.519,88.489c-1.12,0-1.624,1.078-1.666,2.112
			c1.036-0.014,2.506-0.251,2.506-1.328C153.358,88.756,153.022,88.489,152.519,88.489z"/>
		<path fill="#FFFFFF" d="M158.666,93.413l0.504-0.041c0.238-0.014,0.363-0.111,0.363-0.392v-6.506l-0.797-0.043v-1.189h2.519
			l3.96,6.424h0.027v-5.191l-0.923-0.043v-1.189h3.413v1.135l-0.503,0.041c-0.21,0.014-0.336,0.139-0.336,0.433v7.697h-1.638
			l-4.043-6.521h-0.027v5.289l0.909,0.043v1.189h-3.429V93.413z"/>
		<path fill="#FFFFFF" d="M171.6,87.3c1.036,0,3.121,0.321,3.121,3.539c0,2.687-1.497,3.919-3.344,3.919
			c-1.876,0-3.107-1.203-3.107-3.737C168.27,88.111,170.158,87.3,171.6,87.3z M173.014,91.064c0-1.568-0.378-2.534-1.497-2.534
			c-1.106,0-1.554,0.952-1.554,2.295c0,1.301,0.182,2.7,1.525,2.7C172.58,93.525,173.014,92.518,173.014,91.064z"/>
		<path fill="#FFFFFF" d="M181.65,87.79l1.455,5.204h0.027l0.953-4.322l-0.715-0.044V87.51h2.812v1.077l-0.461,0.027
			c-0.182,0.014-0.294,0.071-0.378,0.335l-1.329,5.599H182l-1.146-4.17h-0.042l-1.189,4.17h-2.057l-1.414-5.582
			c-0.084-0.253-0.153-0.338-0.405-0.352l-0.406-0.027V87.51h3.204v1.118l-0.784,0.044l0.967,4.295h0.027l1.539-5.177H181.65z"/>
	</g>
</g>
<g>
	<path fill="#EBA843" stroke="#E2971F" stroke-miterlimit="10" d="M406.479,100.5c0,3.865-3.135,7-7,7h-126c-3.865,0-7-3.135-7-7
		v-21c0-3.867,3.135-7,7-7h126c3.865,0,7,3.133,7,7V100.5z"/>
	<g>
		<path fill="#FFFFFF" d="M386.804,92.215c-2.683-1.125-5.769-1.781-9.056-1.785c-5.443-0.016-10.338,1.729-13.749,4.52
			c0,0-0.046,0.389,0.29,0.311l0.102-0.047c3.751-1.84,8.363-2.926,13.357-2.914c2.552,0.004,5.002,0.303,7.289,0.83
			C385.037,93.129,387.424,94.018,386.804,92.215z"/>
		<path fill="#FFFFFF" d="M394.841,99.98c-2.81-2.793-7.061-4.98-11.97-5.846c-2.971-0.523-5.814-0.494-8.345-0.018
			c-0.732,1.344,1.507,1.02,1.507,1.02c2.117-0.059,4.354,0.098,6.658,0.5c4.504,0.797,8.565,2.412,11.775,4.49l0.086,0.057
			C394.848,100.301,394.841,99.98,394.841,99.98z"/>
		<path fill="#FFFFFF" d="M380.065,81.48c-0.411-1.105-1.815-0.797-1.919,0.221c-0.084,0.824,0.648,1.775,1.217,2.578
			c0.42-0.291,0.863-0.543,1.324-0.762C380.579,83.049,380.361,82.279,380.065,81.48z"/>
		<path fill="#FFFFFF" d="M385.003,82.605c0.12-0.838,0.21-1.738-0.165-2.32c-0.56-0.869-1.962-0.547-1.824,0.621
			c0.082,0.684,0.201,1.326,0.308,1.793c0.379-0.057,0.766-0.096,1.157-0.105C384.657,82.588,384.828,82.602,385.003,82.605z"/>
		<path fill="#FFFFFF" d="M389.963,81.053c-0.166-1.092-1.586-1.307-1.934-0.072c-0.221,0.783-0.377,1.539-0.469,2.062
			c0.52,0.166,1.02,0.371,1.496,0.625C389.544,82.814,390.082,81.85,389.963,81.053z"/>
		<path fill="#FFFFFF" d="M392.296,86.52c0.812-0.471,1.729-1.01,1.982-1.727c0.343-0.967-0.804-1.807-1.653-0.963
			c-0.555,0.551-1.033,1.102-1.344,1.486C391.652,85.688,391.985,86.094,392.296,86.52z"/>
		<path fill="#FFFFFF" d="M395.834,87.975c-1,0.379-1.896,0.818-2.248,1.02c0.156,0.436,0.291,0.885,0.387,1.35
			c1.021-0.125,2.333-0.195,2.951-0.828C397.65,88.773,396.97,87.551,395.834,87.975z"/>
		<path fill="#FFFFFF" d="M376.592,87.58c1.754-2.146,4.33-3.543,7.226-3.619c5.33-0.145,9.67,4.232,9.705,9.783
			c0.004,1.053-0.146,2.064-0.425,3.021c0,0-0.277,0.221-0.55-0.109c0.054-0.41,0.089-0.824,0.089-1.252
			c-0.032-5.031-3.971-9.006-8.804-8.875c-1.847,0.049-3.548,0.695-4.948,1.75C378.885,88.279,377.004,89.246,376.592,87.58z"/>
	</g>
	<g>
		<path fill="#FFFFFF" d="M279.138,93.414l0.462-0.041c0.237-0.027,0.405-0.111,0.405-0.393v-6.506l-0.798-0.043v-1.189h3.82
			c2.057,0,3.357,0.672,3.357,2.576c0,1.398-0.908,2.154-1.678,2.463c0.377,0.139,0.587,0.377,0.797,0.852l1.008,2.199l0.798,0.027
			v1.189h-3.456v-1.135l0.405-0.041c0.321-0.041,0.392-0.168,0.267-0.449l-0.658-1.398c-0.196-0.434-0.393-0.643-0.882-0.643h-1.273
			v2.434l0.909,0.043v1.189h-3.483V93.414z M282.93,89.555c1.189,0,1.721-0.547,1.721-1.541c0-1.26-0.728-1.412-1.916-1.412h-1.022
			v2.953H282.93z"/>
		<path fill="#FFFFFF" d="M293.708,89.244c0,2.156-2.337,2.52-3.987,2.533c0.055,0.91,0.531,1.65,1.721,1.65
			c0.825,0,1.427-0.377,1.763-0.615l0.532,1.135c-0.225,0.195-1.147,0.783-2.463,0.783c-2.379,0-3.303-1.455-3.303-3.541
			c0-2.07,1.162-3.889,3.456-3.889C292.799,87.301,293.708,88,293.708,89.244z M291.329,88.49c-1.119,0-1.622,1.078-1.665,2.111
			c1.036-0.014,2.504-0.25,2.504-1.328C292.168,88.756,291.834,88.49,291.329,88.49z"/>
		<path fill="#FFFFFF" d="M297.546,88.447c-0.602,0-1.049,0.279-1.049,0.84c0,0.643,0.671,0.838,1.328,1.021
			c1.091,0.307,2.294,0.658,2.294,2.182c0,1.457-1.203,2.24-2.699,2.24c-0.882,0-1.987-0.141-2.575-0.436v-1.943l1.261-0.098v0.67
			c0,0.268,0.068,0.379,0.32,0.477c0.266,0.098,0.588,0.141,0.924,0.141c0.7,0,1.105-0.266,1.105-0.854
			c0-0.672-0.615-0.799-1.371-0.994c-1.035-0.266-2.168-0.615-2.168-2.17c0-1.453,1.23-2.223,2.699-2.223
			c0.951,0,1.777,0.293,2.323,0.561v1.676l-1.26,0.1v-0.588c0-0.266-0.069-0.377-0.321-0.475
			C298.092,88.477,297.881,88.447,297.546,88.447z"/>
		<path fill="#FFFFFF" d="M306.799,89.244c0,2.156-2.337,2.52-3.988,2.533c0.057,0.91,0.531,1.65,1.721,1.65
			c0.826,0,1.428-0.377,1.764-0.615l0.531,1.135c-0.224,0.195-1.147,0.783-2.463,0.783c-2.379,0-3.303-1.455-3.303-3.541
			c0-2.07,1.162-3.889,3.457-3.889C305.889,87.301,306.799,88,306.799,89.244z M304.42,88.49c-1.12,0-1.624,1.078-1.666,2.111
			c1.035-0.014,2.506-0.25,2.506-1.328C305.26,88.756,304.924,88.49,304.42,88.49z"/>
		<path fill="#FFFFFF" d="M308.648,89.105c0-0.309-0.084-0.406-0.35-0.42l-0.588-0.043V87.51h2.364v1.051
			c0.322-0.699,1.064-1.26,1.987-1.26c0.463,0,0.882,0.084,1.343,0.307v2.086l-1.301,0.098v-0.645c0-0.166-0.027-0.293-0.14-0.35
			c-0.126-0.057-0.224-0.07-0.378-0.07c-0.755,0-1.273,0.602-1.273,1.412v3.248l1.218,0.057v1.105h-3.75v-1.064l0.462-0.041
			c0.266-0.029,0.405-0.111,0.405-0.463V89.105z"/>
		<path fill="#FFFFFF" d="M321.455,87.51v1.092l-0.435,0.027c-0.181,0.014-0.294,0.07-0.377,0.338l-1.805,5.582h-2.141l-1.96-5.568
			c-0.084-0.254-0.153-0.338-0.405-0.352l-0.405-0.027V87.51h3.287v1.119l-0.853,0.043l1.44,4.604h0.027l1.399-4.604l-0.727-0.043
			V87.51H321.455z"/>
		<path fill="#FFFFFF" d="M327.854,89.244c0,2.156-2.337,2.52-3.987,2.533c0.056,0.91,0.53,1.65,1.72,1.65
			c0.826,0,1.428-0.377,1.764-0.615l0.531,1.135c-0.224,0.195-1.147,0.783-2.462,0.783c-2.379,0-3.303-1.455-3.303-3.541
			c0-2.07,1.162-3.889,3.456-3.889C326.944,87.301,327.854,88,327.854,89.244z M325.476,88.49c-1.12,0-1.624,1.078-1.666,2.111
			c1.036-0.014,2.506-0.25,2.506-1.328C326.315,88.756,325.979,88.49,325.476,88.49z"/>
		<path fill="#FFFFFF" d="M331.623,93.414l0.504-0.041c0.238-0.014,0.363-0.111,0.363-0.393v-6.506l-0.797-0.043v-1.189h2.519
			l3.96,6.424h0.027v-5.191l-0.923-0.043v-1.189h3.413v1.135l-0.503,0.041c-0.21,0.014-0.336,0.139-0.336,0.434v7.697h-1.638
			l-4.043-6.521h-0.027v5.289l0.909,0.043v1.189h-3.429V93.414z"/>
		<path fill="#FFFFFF" d="M344.557,87.301c1.036,0,3.121,0.32,3.121,3.539c0,2.686-1.497,3.918-3.344,3.918
			c-1.876,0-3.107-1.203-3.107-3.736C341.227,88.111,343.115,87.301,344.557,87.301z M345.971,91.064
			c0-1.568-0.378-2.533-1.497-2.533c-1.106,0-1.554,0.951-1.554,2.295c0,1.301,0.182,2.699,1.525,2.699
			C345.537,93.525,345.971,92.518,345.971,91.064z"/>
		<path fill="#FFFFFF" d="M354.607,87.791l1.455,5.203h0.027l0.953-4.322l-0.715-0.043V87.51h2.812v1.078l-0.461,0.027
			c-0.182,0.014-0.294,0.07-0.378,0.334l-1.329,5.6h-2.016l-1.146-4.17h-0.042l-1.189,4.17h-2.057l-1.414-5.582
			c-0.084-0.254-0.153-0.338-0.405-0.352l-0.406-0.027V87.51h3.204v1.119l-0.784,0.043l0.967,4.295h0.027l1.539-5.176H354.607z"/>
	</g>
</g>
</svg>
