<?xml version="1.0" encoding="utf-8"?>
<!-- Generator: Adobe Illustrator 16.0.4, SVG Export Plug-In . SVG Version: 6.00 Build 0)  -->
<!DOCTYPE svg PUBLIC "-//W3C//DTD SVG 1.1//EN" "http://www.w3.org/Graphics/SVG/1.1/DTD/svg11.dtd">
<svg version="1.1" id="Layer_1" xmlns="http://www.w3.org/2000/svg" xmlns:xlink="http://www.w3.org/1999/xlink" x="0px" y="0px"
	 width="500px" height="180px" viewBox="0 0 500 180" enable-background="new 0 0 500 180" xml:space="preserve">
<g>
	<linearGradient id="SVGID_1_" gradientUnits="userSpaceOnUse" x1="163.5215" y1="72.5" x2="163.5215" y2="107.5">
		<stop  offset="0" style="stop-color:#7CB561"/>
		<stop  offset="1" style="stop-color:#6E9E54"/>
	</linearGradient>
	<path fill="url(#SVGID_1_)" stroke="#69914E" stroke-miterlimit="10" d="M233.521,100.5c0,3.864-3.135,7-7,7h-126
		c-3.866,0-7-3.136-7-7v-21c0-3.867,3.134-7,7-7h126c3.865,0,7,3.133,7,7V100.5z"/>
	<g>
		<path fill="#FFFFFF" d="M213.847,92.217c-2.683-1.129-5.769-1.782-9.056-1.787c-5.443-0.016-10.338,1.729-13.749,4.521
			c0,0-0.046,0.387,0.29,0.31l0.102-0.048c3.751-1.839,8.363-2.926,13.357-2.914c2.552,0.004,5.002,0.303,7.289,0.831
			C212.08,93.13,214.467,94.017,213.847,92.217z"/>
		<path fill="#FFFFFF" d="M221.884,99.982c-2.81-2.794-7.061-4.984-11.97-5.848c-2.971-0.523-5.814-0.494-8.345-0.018
			c-0.732,1.344,1.507,1.018,1.507,1.018c2.117-0.057,4.354,0.099,6.658,0.502c4.504,0.797,8.565,2.41,11.775,4.491l0.086,0.055
			C221.891,100.301,221.884,99.982,221.884,99.982z"/>
		<path fill="#FFFFFF" d="M207.108,81.481c-0.411-1.107-1.815-0.798-1.919,0.219c-0.084,0.825,0.648,1.777,1.217,2.579
			c0.42-0.291,0.863-0.544,1.324-0.763C207.622,83.049,207.404,82.279,207.108,81.481z"/>
		<path fill="#FFFFFF" d="M212.046,82.605c0.12-0.838,0.21-1.736-0.165-2.32c-0.56-0.868-1.962-0.547-1.824,0.622
			c0.082,0.683,0.201,1.324,0.308,1.794c0.379-0.058,0.766-0.096,1.157-0.107C211.7,82.589,211.871,82.603,212.046,82.605z"/>
		<path fill="#FFFFFF" d="M217.006,81.052c-0.166-1.09-1.586-1.304-1.934-0.072c-0.221,0.784-0.377,1.541-0.469,2.063
			c0.52,0.166,1.02,0.371,1.496,0.624C216.587,82.814,217.125,81.851,217.006,81.052z"/>
		<path fill="#FFFFFF" d="M219.339,86.52c0.812-0.472,1.729-1.01,1.982-1.727c0.343-0.967-0.804-1.805-1.653-0.965
			c-0.555,0.552-1.033,1.104-1.344,1.488C218.695,85.688,219.028,86.094,219.339,86.52z"/>
		<path fill="#FFFFFF" d="M222.877,87.976c-1,0.378-1.896,0.815-2.248,1.019c0.156,0.436,0.291,0.885,0.387,1.35
			c1.021-0.126,2.333-0.194,2.951-0.828C224.693,88.773,224.013,87.55,222.877,87.976z"/>
		<path fill="#FFFFFF" d="M203.635,87.582c1.754-2.146,4.33-3.544,7.226-3.621c5.33-0.144,9.67,4.233,9.705,9.784
			c0.004,1.051-0.146,2.064-0.425,3.021c0,0-0.277,0.222-0.55-0.111c0.054-0.41,0.089-0.823,0.089-1.251
			c-0.032-5.031-3.971-9.006-8.804-8.875c-1.847,0.05-3.548,0.697-4.948,1.75C205.928,88.279,204.047,89.245,203.635,87.582z"/>
	</g>
	<g>
		<path fill="#FFFFFF" d="M106.181,93.414l0.462-0.041c0.237-0.027,0.405-0.112,0.405-0.393v-6.506l-0.797-0.043v-1.189h3.82
			c2.057,0,3.358,0.672,3.358,2.575c0,1.399-0.909,2.155-1.679,2.463c0.377,0.14,0.587,0.378,0.797,0.853l1.007,2.199l0.798,0.027
			v1.189h-3.457v-1.135l0.406-0.041c0.322-0.041,0.392-0.169,0.266-0.449l-0.658-1.399c-0.196-0.433-0.392-0.643-0.881-0.643h-1.273
			v2.434l0.91,0.044v1.189h-3.484V93.414z M109.972,89.554c1.189,0,1.722-0.547,1.722-1.54c0-1.261-0.728-1.413-1.917-1.413h-1.022
			v2.953H109.972z"/>
		<path fill="#FFFFFF" d="M120.751,89.244c0,2.155-2.337,2.52-3.988,2.533c0.056,0.909,0.532,1.65,1.721,1.65
			c0.825,0,1.427-0.377,1.763-0.615l0.532,1.135c-0.225,0.195-1.147,0.783-2.463,0.783c-2.379,0-3.302-1.456-3.302-3.541
			c0-2.071,1.161-3.89,3.456-3.89C119.842,87.3,120.751,88,120.751,89.244z M118.372,88.489c-1.119,0-1.623,1.078-1.665,2.112
			c1.036-0.014,2.504-0.25,2.504-1.328C119.211,88.756,118.876,88.489,118.372,88.489z"/>
		<path fill="#FFFFFF" d="M124.589,88.446c-0.602,0-1.049,0.28-1.049,0.841c0,0.643,0.671,0.838,1.328,1.021
			c1.091,0.308,2.294,0.659,2.294,2.183c0,1.457-1.203,2.24-2.7,2.24c-0.882,0-1.987-0.141-2.575-0.436v-1.943l1.26-0.098v0.67
			c0,0.267,0.069,0.378,0.321,0.477c0.265,0.098,0.588,0.141,0.924,0.141c0.7,0,1.105-0.267,1.105-0.854
			c0-0.672-0.615-0.798-1.372-0.993c-1.035-0.267-2.168-0.615-2.168-2.17c0-1.453,1.231-2.224,2.7-2.224
			c0.951,0,1.777,0.294,2.323,0.561v1.677l-1.26,0.099v-0.588c0-0.265-0.07-0.376-0.321-0.474
			C125.135,88.476,124.924,88.446,124.589,88.446z"/>
		<path fill="#FFFFFF" d="M133.842,89.244c0,2.155-2.337,2.52-3.988,2.533c0.056,0.909,0.531,1.65,1.72,1.65
			c0.826,0,1.428-0.377,1.764-0.615l0.531,1.135c-0.224,0.195-1.147,0.783-2.462,0.783c-2.379,0-3.303-1.456-3.303-3.541
			c0-2.071,1.162-3.89,3.457-3.89C132.931,87.3,133.842,88,133.842,89.244z M131.462,88.489c-1.12,0-1.624,1.078-1.666,2.112
			c1.036-0.014,2.505-0.25,2.505-1.328C132.302,88.756,131.966,88.489,131.462,88.489z"/>
		<path fill="#FFFFFF" d="M135.692,89.104c0-0.308-0.084-0.405-0.35-0.419l-0.588-0.043V87.51h2.364v1.051
			c0.322-0.7,1.064-1.261,1.987-1.261c0.462,0,0.882,0.085,1.343,0.308v2.085l-1.301,0.099v-0.646c0-0.166-0.027-0.292-0.14-0.349
			c-0.125-0.057-0.223-0.07-0.377-0.07c-0.755,0-1.273,0.602-1.273,1.412v3.248l1.218,0.057v1.105h-3.75v-1.064l0.462-0.041
			c0.266-0.029,0.406-0.111,0.406-0.463V89.104z"/>
		<path fill="#FFFFFF" d="M148.498,87.51v1.092l-0.435,0.027c-0.181,0.014-0.294,0.07-0.377,0.337l-1.805,5.583h-2.141l-1.96-5.569
			c-0.084-0.253-0.153-0.337-0.405-0.351l-0.406-0.027V87.51h3.288v1.119l-0.853,0.043l1.441,4.603h0.027l1.399-4.603l-0.727-0.043
			V87.51H148.498z"/>
		<path fill="#FFFFFF" d="M154.897,89.244c0,2.155-2.337,2.52-3.988,2.533c0.056,0.909,0.531,1.65,1.72,1.65
			c0.826,0,1.428-0.377,1.764-0.615l0.531,1.135c-0.224,0.195-1.147,0.783-2.462,0.783c-2.379,0-3.303-1.456-3.303-3.541
			c0-2.071,1.162-3.89,3.457-3.89C153.987,87.3,154.897,88,154.897,89.244z M152.519,88.489c-1.12,0-1.624,1.078-1.666,2.112
			c1.036-0.014,2.506-0.25,2.506-1.328C153.358,88.756,153.022,88.489,152.519,88.489z"/>
		<path fill="#FFFFFF" d="M158.666,93.414l0.504-0.041c0.238-0.014,0.363-0.112,0.363-0.393v-6.506l-0.797-0.043v-1.189h2.519
			l3.96,6.424h0.027v-5.191l-0.923-0.043v-1.189h3.413v1.135l-0.503,0.041c-0.21,0.014-0.336,0.139-0.336,0.434v7.697h-1.638
			l-4.043-6.521h-0.027v5.288l0.909,0.044v1.189h-3.429V93.414z"/>
		<path fill="#FFFFFF" d="M171.6,87.3c1.036,0,3.121,0.321,3.121,3.539c0,2.687-1.497,3.919-3.344,3.919
			c-1.876,0-3.107-1.203-3.107-3.736C168.27,88.111,170.158,87.3,171.6,87.3z M173.014,91.064c0-1.568-0.378-2.534-1.497-2.534
			c-1.106,0-1.554,0.952-1.554,2.295c0,1.301,0.182,2.7,1.525,2.7C172.58,93.525,173.014,92.518,173.014,91.064z"/>
		<path fill="#FFFFFF" d="M181.65,87.79l1.455,5.204h0.027l0.953-4.322l-0.715-0.043V87.51h2.812v1.078l-0.461,0.027
			c-0.182,0.014-0.294,0.07-0.378,0.334l-1.329,5.6H182l-1.146-4.17h-0.042l-1.189,4.17h-2.057l-1.414-5.583
			c-0.084-0.253-0.153-0.337-0.405-0.351l-0.406-0.027V87.51h3.204v1.119l-0.784,0.043l0.967,4.295h0.027l1.539-5.177H181.65z"/>
	</g>
</g>
<g>
	<path fill="#7CB561" stroke="#69914E" stroke-miterlimit="10" d="M406.479,100.5c0,3.863-3.135,7-7,7h-126c-3.866,0-7-3.137-7-7
		v-21c0-3.867,3.134-7,7-7h126c3.865,0,7,3.133,7,7V100.5z"/>
	<g>
		<path fill="#FFFFFF" d="M386.803,92.217c-2.682-1.129-5.768-1.783-9.055-1.787c-5.443-0.016-10.338,1.729-13.75,4.521
			c0,0-0.045,0.387,0.291,0.309l0.102-0.047c3.75-1.84,8.363-2.926,13.357-2.914c2.551,0.004,5.002,0.303,7.289,0.83
			C385.037,93.129,387.424,94.016,386.803,92.217z"/>
		<path fill="#FFFFFF" d="M394.84,99.982c-2.809-2.795-7.061-4.984-11.969-5.848c-2.971-0.523-5.814-0.494-8.346-0.018
			c-0.732,1.344,1.508,1.018,1.508,1.018c2.117-0.057,4.354,0.098,6.658,0.502c4.504,0.797,8.564,2.41,11.775,4.49l0.086,0.055
			C394.848,100.301,394.84,99.982,394.84,99.982z"/>
		<path fill="#FFFFFF" d="M380.064,81.48c-0.41-1.107-1.814-0.797-1.918,0.219c-0.084,0.826,0.648,1.777,1.217,2.58
			c0.42-0.291,0.863-0.545,1.324-0.764C380.578,83.049,380.361,82.279,380.064,81.48z"/>
		<path fill="#FFFFFF" d="M385.002,82.605c0.121-0.838,0.211-1.736-0.164-2.32c-0.561-0.869-1.963-0.547-1.824,0.621
			c0.082,0.684,0.201,1.324,0.307,1.795c0.379-0.059,0.766-0.096,1.158-0.107C384.656,82.588,384.828,82.602,385.002,82.605z"/>
		<path fill="#FFFFFF" d="M389.963,81.051c-0.166-1.09-1.586-1.303-1.934-0.072c-0.221,0.785-0.377,1.541-0.469,2.064
			c0.52,0.166,1.02,0.371,1.496,0.623C389.543,82.814,390.082,81.85,389.963,81.051z"/>
		<path fill="#FFFFFF" d="M392.295,86.52c0.812-0.473,1.73-1.01,1.982-1.727c0.344-0.967-0.803-1.805-1.652-0.965
			c-0.555,0.551-1.033,1.104-1.344,1.488C391.652,85.688,391.984,86.094,392.295,86.52z"/>
		<path fill="#FFFFFF" d="M395.834,87.975c-1,0.379-1.896,0.816-2.248,1.02c0.156,0.436,0.291,0.885,0.387,1.35
			c1.021-0.127,2.332-0.195,2.951-0.828C397.65,88.773,396.969,87.549,395.834,87.975z"/>
		<path fill="#FFFFFF" d="M376.592,87.582c1.754-2.146,4.33-3.545,7.225-3.621c5.33-0.145,9.67,4.232,9.705,9.783
			c0.004,1.051-0.145,2.064-0.424,3.021c0,0-0.277,0.223-0.551-0.111c0.055-0.41,0.09-0.822,0.09-1.25
			c-0.033-5.031-3.971-9.006-8.805-8.875c-1.846,0.049-3.547,0.697-4.947,1.75C378.885,88.279,377.004,89.244,376.592,87.582z"/>
	</g>
	<g>
		<path fill="#FFFFFF" d="M279.137,93.414l0.463-0.041c0.236-0.027,0.404-0.113,0.404-0.393v-6.506l-0.797-0.043v-1.189h3.82
			c2.057,0,3.357,0.672,3.357,2.574c0,1.4-0.909,2.156-1.679,2.463c0.378,0.141,0.587,0.379,0.798,0.854l1.007,2.199l0.798,0.027
			v1.189h-3.456v-1.135l0.405-0.041c0.322-0.041,0.393-0.17,0.267-0.449l-0.658-1.4c-0.196-0.432-0.392-0.643-0.882-0.643h-1.273
			v2.434l0.91,0.045v1.189h-3.484V93.414z M282.929,89.553c1.189,0,1.722-0.547,1.722-1.539c0-1.262-0.729-1.414-1.917-1.414h-1.022
			v2.953H282.929z"/>
		<path fill="#FFFFFF" d="M293.707,89.244c0,2.154-2.336,2.52-3.987,2.533c0.056,0.908,0.532,1.65,1.722,1.65
			c0.824,0,1.426-0.377,1.762-0.615l0.533,1.135c-0.225,0.195-1.148,0.783-2.464,0.783c-2.379,0-3.302-1.457-3.302-3.541
			c0-2.072,1.161-3.891,3.455-3.891C292.799,87.299,293.707,88,293.707,89.244z M291.328,88.488c-1.119,0-1.622,1.078-1.664,2.113
			c1.035-0.014,2.504-0.25,2.504-1.328C292.168,88.756,291.833,88.488,291.328,88.488z"/>
		<path fill="#FFFFFF" d="M297.545,88.445c-0.602,0-1.049,0.281-1.049,0.842c0,0.643,0.672,0.838,1.328,1.02
			c1.092,0.309,2.295,0.66,2.295,2.184c0,1.457-1.203,2.24-2.699,2.24c-0.883,0-1.988-0.141-2.576-0.436v-1.943l1.261-0.098v0.67
			c0,0.266,0.069,0.377,0.321,0.477c0.266,0.098,0.588,0.141,0.924,0.141c0.699,0,1.105-0.268,1.105-0.855
			c0-0.672-0.615-0.797-1.372-0.992c-1.034-0.268-2.168-0.615-2.168-2.17c0-1.453,1.231-2.225,2.7-2.225
			c0.951,0,1.777,0.295,2.322,0.561v1.678l-1.26,0.098v-0.588c0-0.264-0.069-0.375-0.32-0.473
			C298.092,88.475,297.881,88.445,297.545,88.445z"/>
		<path fill="#FFFFFF" d="M306.799,89.244c0,2.154-2.338,2.52-3.988,2.533c0.056,0.908,0.531,1.65,1.721,1.65
			c0.826,0,1.428-0.377,1.764-0.615l0.531,1.135c-0.225,0.195-1.148,0.783-2.463,0.783c-2.379,0-3.303-1.457-3.303-3.541
			c0-2.072,1.162-3.891,3.457-3.891C305.888,87.299,306.799,88,306.799,89.244z M304.419,88.488c-1.12,0-1.624,1.078-1.665,2.113
			c1.035-0.014,2.505-0.25,2.505-1.328C305.259,88.756,304.923,88.488,304.419,88.488z"/>
		<path fill="#FFFFFF" d="M308.648,89.104c0-0.307-0.084-0.404-0.35-0.418l-0.588-0.043V87.51h2.363v1.051
			c0.322-0.701,1.064-1.262,1.988-1.262c0.462,0,0.881,0.086,1.342,0.309v2.084l-1.301,0.1v-0.646c0-0.166-0.027-0.291-0.14-0.348
			c-0.126-0.057-0.224-0.07-0.378-0.07c-0.754,0-1.273,0.602-1.273,1.412v3.248l1.219,0.057v1.105h-3.751v-1.064l0.462-0.041
			c0.266-0.029,0.406-0.111,0.406-0.463V89.104z"/>
		<path fill="#FFFFFF" d="M321.455,87.51v1.092l-0.436,0.027c-0.18,0.014-0.293,0.07-0.377,0.336l-1.805,5.584h-2.141l-1.959-5.57
			c-0.084-0.252-0.154-0.336-0.406-0.35l-0.405-0.027V87.51h3.288v1.119l-0.854,0.043l1.441,4.602h0.027l1.398-4.602l-0.727-0.043
			V87.51H321.455z"/>
		<path fill="#FFFFFF" d="M327.854,89.244c0,2.154-2.336,2.52-3.987,2.533c0.056,0.908,0.53,1.65,1.72,1.65
			c0.826,0,1.428-0.377,1.764-0.615l0.531,1.135c-0.223,0.195-1.146,0.783-2.461,0.783c-2.379,0-3.304-1.457-3.304-3.541
			c0-2.072,1.162-3.891,3.456-3.891C326.943,87.299,327.854,88,327.854,89.244z M325.475,88.488c-1.119,0-1.623,1.078-1.666,2.113
			c1.037-0.014,2.506-0.25,2.506-1.328C326.314,88.756,325.979,88.488,325.475,88.488z"/>
		<path fill="#FFFFFF" d="M331.623,93.414l0.504-0.041c0.238-0.014,0.363-0.113,0.363-0.393v-6.506l-0.798-0.043v-1.189h2.519
			l3.961,6.424h0.027v-5.191l-0.924-0.043v-1.189h3.414v1.135l-0.504,0.041c-0.209,0.014-0.336,0.139-0.336,0.434v7.697h-1.637
			l-4.043-6.521h-0.027v5.287l0.908,0.045v1.189h-3.428V93.414z"/>
		<path fill="#FFFFFF" d="M344.557,87.299c1.035,0,3.121,0.322,3.121,3.539c0,2.688-1.498,3.92-3.344,3.92
			c-1.877,0-3.107-1.203-3.107-3.736C341.227,88.111,343.115,87.299,344.557,87.299z M345.971,91.064
			c0-1.568-0.379-2.535-1.498-2.535c-1.105,0-1.553,0.953-1.553,2.295c0,1.301,0.182,2.701,1.525,2.701
			C345.537,93.525,345.971,92.518,345.971,91.064z"/>
		<path fill="#FFFFFF" d="M354.607,87.789l1.455,5.205h0.027l0.953-4.322l-0.715-0.043V87.51h2.812v1.078l-0.461,0.027
			c-0.182,0.014-0.295,0.07-0.379,0.334l-1.328,5.6h-2.016l-1.146-4.17h-0.043l-1.189,4.17h-2.057l-1.414-5.584
			c-0.084-0.252-0.152-0.336-0.404-0.35l-0.406-0.027V87.51h3.203v1.119l-0.783,0.043l0.967,4.295h0.027l1.539-5.178H354.607z"/>
	</g>
</g>
</svg>
